<?xml version="1.0" encoding="utf-8"?>
<svg xmlns="http://www.w3.org/2000/svg" xmlns:xlink="http://www.w3.org/1999/xlink" width="528" height="336" viewBox="0 0 2112 1344">
<defs>
  <clipPath id="clip070">
    <rect x="0" y="0" width="2112" height="1344"/>
  </clipPath>
</defs>
<path clip-path="url(#clip070)" d="M0 1344 L2112 1344 L2112 0 L0 0  Z" fill="#ffffff" fill-rule="evenodd" fill-opacity="1"/>
<defs>
  <clipPath id="clip071">
    <rect x="422" y="0" width="1479" height="1344"/>
  </clipPath>
</defs>
<path clip-path="url(#clip070)" d="M137.816 1173.47 L1008.76 1173.47 L1008.76 47.2441 L137.816 47.2441  Z" fill="#ffffff" fill-rule="evenodd" fill-opacity="1"/>
<defs>
  <clipPath id="clip072">
    <rect x="137" y="47" width="872" height="1127"/>
  </clipPath>
</defs>
<polyline clip-path="url(#clip072)" style="stroke:#000000; stroke-linecap:round; stroke-linejoin:round; stroke-width:2; stroke-opacity:0.1; fill:none" points="153.864,1173.47 153.864,47.2441 "/>
<polyline clip-path="url(#clip072)" style="stroke:#000000; stroke-linecap:round; stroke-linejoin:round; stroke-width:2; stroke-opacity:0.1; fill:none" points="419.321,1173.47 419.321,47.2441 "/>
<polyline clip-path="url(#clip072)" style="stroke:#000000; stroke-linecap:round; stroke-linejoin:round; stroke-width:2; stroke-opacity:0.1; fill:none" points="684.778,1173.47 684.778,47.2441 "/>
<polyline clip-path="url(#clip072)" style="stroke:#000000; stroke-linecap:round; stroke-linejoin:round; stroke-width:2; stroke-opacity:0.1; fill:none" points="950.234,1173.47 950.234,47.2441 "/>
<polyline clip-path="url(#clip070)" style="stroke:#000000; stroke-linecap:round; stroke-linejoin:round; stroke-width:4; stroke-opacity:1; fill:none" points="137.816,1173.47 1008.76,1173.47 "/>
<polyline clip-path="url(#clip070)" style="stroke:#000000; stroke-linecap:round; stroke-linejoin:round; stroke-width:4; stroke-opacity:1; fill:none" points="153.864,1173.47 153.864,1154.57 "/>
<polyline clip-path="url(#clip070)" style="stroke:#000000; stroke-linecap:round; stroke-linejoin:round; stroke-width:4; stroke-opacity:1; fill:none" points="419.321,1173.47 419.321,1154.57 "/>
<polyline clip-path="url(#clip070)" style="stroke:#000000; stroke-linecap:round; stroke-linejoin:round; stroke-width:4; stroke-opacity:1; fill:none" points="684.778,1173.47 684.778,1154.57 "/>
<polyline clip-path="url(#clip070)" style="stroke:#000000; stroke-linecap:round; stroke-linejoin:round; stroke-width:4; stroke-opacity:1; fill:none" points="950.234,1173.47 950.234,1154.57 "/>
<path clip-path="url(#clip070)" d="M131.248 1202.09 Q127.637 1202.09 125.809 1205.65 Q124.003 1209.19 124.003 1216.32 Q124.003 1223.43 125.809 1226.99 Q127.637 1230.53 131.248 1230.53 Q134.883 1230.53 136.688 1226.99 Q138.517 1223.43 138.517 1216.32 Q138.517 1209.19 136.688 1205.65 Q134.883 1202.09 131.248 1202.09 M131.248 1198.38 Q137.059 1198.38 140.114 1202.99 Q143.193 1207.57 143.193 1216.32 Q143.193 1225.05 140.114 1229.65 Q137.059 1234.24 131.248 1234.24 Q125.438 1234.24 122.36 1229.65 Q119.304 1225.05 119.304 1216.32 Q119.304 1207.57 122.36 1202.99 Q125.438 1198.38 131.248 1198.38 Z" fill="#000000" fill-rule="nonzero" fill-opacity="1" /><path clip-path="url(#clip070)" d="M151.41 1227.69 L156.295 1227.69 L156.295 1233.57 L151.41 1233.57 L151.41 1227.69 Z" fill="#000000" fill-rule="nonzero" fill-opacity="1" /><path clip-path="url(#clip070)" d="M176.48 1202.09 Q172.869 1202.09 171.04 1205.65 Q169.234 1209.19 169.234 1216.32 Q169.234 1223.43 171.04 1226.99 Q172.869 1230.53 176.48 1230.53 Q180.114 1230.53 181.919 1226.99 Q183.748 1223.43 183.748 1216.32 Q183.748 1209.19 181.919 1205.65 Q180.114 1202.09 176.48 1202.09 M176.48 1198.38 Q182.29 1198.38 185.345 1202.99 Q188.424 1207.57 188.424 1216.32 Q188.424 1225.05 185.345 1229.65 Q182.29 1234.24 176.48 1234.24 Q170.669 1234.24 167.591 1229.65 Q164.535 1225.05 164.535 1216.32 Q164.535 1207.57 167.591 1202.99 Q170.669 1198.38 176.48 1198.38 Z" fill="#000000" fill-rule="nonzero" fill-opacity="1" /><path clip-path="url(#clip070)" d="M397.203 1202.09 Q393.592 1202.09 391.763 1205.65 Q389.958 1209.19 389.958 1216.32 Q389.958 1223.43 391.763 1226.99 Q393.592 1230.53 397.203 1230.53 Q400.837 1230.53 402.643 1226.99 Q404.471 1223.43 404.471 1216.32 Q404.471 1209.19 402.643 1205.65 Q400.837 1202.09 397.203 1202.09 M397.203 1198.38 Q403.013 1198.38 406.069 1202.99 Q409.147 1207.57 409.147 1216.32 Q409.147 1225.05 406.069 1229.65 Q403.013 1234.24 397.203 1234.24 Q391.393 1234.24 388.314 1229.65 Q385.258 1225.05 385.258 1216.32 Q385.258 1207.57 388.314 1202.99 Q391.393 1198.38 397.203 1198.38 Z" fill="#000000" fill-rule="nonzero" fill-opacity="1" /><path clip-path="url(#clip070)" d="M417.365 1227.69 L422.249 1227.69 L422.249 1233.57 L417.365 1233.57 L417.365 1227.69 Z" fill="#000000" fill-rule="nonzero" fill-opacity="1" /><path clip-path="url(#clip070)" d="M432.48 1199.01 L450.837 1199.01 L450.837 1202.94 L436.763 1202.94 L436.763 1211.41 Q437.781 1211.07 438.8 1210.9 Q439.818 1210.72 440.837 1210.72 Q446.624 1210.72 450.003 1213.89 Q453.383 1217.06 453.383 1222.48 Q453.383 1228.06 449.911 1231.16 Q446.439 1234.24 440.119 1234.24 Q437.943 1234.24 435.675 1233.87 Q433.43 1233.5 431.022 1232.76 L431.022 1228.06 Q433.105 1229.19 435.328 1229.75 Q437.55 1230.3 440.027 1230.3 Q444.031 1230.3 446.369 1228.2 Q448.707 1226.09 448.707 1222.48 Q448.707 1218.87 446.369 1216.76 Q444.031 1214.65 440.027 1214.65 Q438.152 1214.65 436.277 1215.07 Q434.425 1215.49 432.48 1216.37 L432.48 1199.01 Z" fill="#000000" fill-rule="nonzero" fill-opacity="1" /><path clip-path="url(#clip070)" d="M651.931 1229.63 L659.569 1229.63 L659.569 1203.27 L651.259 1204.93 L651.259 1200.67 L659.523 1199.01 L664.199 1199.01 L664.199 1229.63 L671.838 1229.63 L671.838 1233.57 L651.931 1233.57 L651.931 1229.63 Z" fill="#000000" fill-rule="nonzero" fill-opacity="1" /><path clip-path="url(#clip070)" d="M681.282 1227.69 L686.166 1227.69 L686.166 1233.57 L681.282 1233.57 L681.282 1227.69 Z" fill="#000000" fill-rule="nonzero" fill-opacity="1" /><path clip-path="url(#clip070)" d="M706.352 1202.09 Q702.74 1202.09 700.912 1205.65 Q699.106 1209.19 699.106 1216.32 Q699.106 1223.43 700.912 1226.99 Q702.74 1230.53 706.352 1230.53 Q709.986 1230.53 711.791 1226.99 Q713.62 1223.43 713.62 1216.32 Q713.62 1209.19 711.791 1205.65 Q709.986 1202.09 706.352 1202.09 M706.352 1198.38 Q712.162 1198.38 715.217 1202.99 Q718.296 1207.57 718.296 1216.32 Q718.296 1225.05 715.217 1229.65 Q712.162 1234.24 706.352 1234.24 Q700.541 1234.24 697.463 1229.65 Q694.407 1225.05 694.407 1216.32 Q694.407 1207.57 697.463 1202.99 Q700.541 1198.38 706.352 1198.38 Z" fill="#000000" fill-rule="nonzero" fill-opacity="1" /><path clip-path="url(#clip070)" d="M917.885 1229.63 L925.524 1229.63 L925.524 1203.27 L917.214 1204.93 L917.214 1200.67 L925.478 1199.01 L930.153 1199.01 L930.153 1229.63 L937.792 1229.63 L937.792 1233.57 L917.885 1233.57 L917.885 1229.63 Z" fill="#000000" fill-rule="nonzero" fill-opacity="1" /><path clip-path="url(#clip070)" d="M947.237 1227.69 L952.121 1227.69 L952.121 1233.57 L947.237 1233.57 L947.237 1227.69 Z" fill="#000000" fill-rule="nonzero" fill-opacity="1" /><path clip-path="url(#clip070)" d="M962.352 1199.01 L980.709 1199.01 L980.709 1202.94 L966.635 1202.94 L966.635 1211.41 Q967.653 1211.07 968.672 1210.9 Q969.69 1210.72 970.709 1210.72 Q976.496 1210.72 979.875 1213.89 Q983.255 1217.06 983.255 1222.48 Q983.255 1228.06 979.783 1231.16 Q976.311 1234.24 969.991 1234.24 Q967.815 1234.24 965.547 1233.87 Q963.301 1233.5 960.894 1232.76 L960.894 1228.06 Q962.977 1229.19 965.2 1229.75 Q967.422 1230.3 969.899 1230.3 Q973.903 1230.3 976.241 1228.2 Q978.579 1226.09 978.579 1222.48 Q978.579 1218.87 976.241 1216.76 Q973.903 1214.65 969.899 1214.65 Q968.024 1214.65 966.149 1215.07 Q964.297 1215.49 962.352 1216.37 L962.352 1199.01 Z" fill="#000000" fill-rule="nonzero" fill-opacity="1" /><path clip-path="url(#clip070)" d="M506.605 1266.49 L513.034 1266.49 L513.034 1310.7 Q513.034 1319.3 509.756 1323.18 Q506.509 1327.06 499.284 1327.06 L496.834 1327.06 L496.834 1321.65 L498.839 1321.65 Q503.104 1321.65 504.854 1319.27 Q506.605 1316.88 506.605 1310.7 L506.605 1266.49 Z" fill="#000000" fill-rule="nonzero" fill-opacity="1" /><path clip-path="url(#clip070)" d="M525.829 1266.49 L532.259 1266.49 L532.259 1308.6 L555.398 1308.6 L555.398 1314.01 L525.829 1314.01 L525.829 1266.49 Z" fill="#000000" fill-rule="nonzero" fill-opacity="1" /><path clip-path="url(#clip070)" d="M562.146 1266.49 L571.726 1266.49 L583.853 1298.83 L596.043 1266.49 L605.624 1266.49 L605.624 1314.01 L599.353 1314.01 L599.353 1272.29 L587.099 1304.88 L580.638 1304.88 L568.384 1272.29 L568.384 1314.01 L562.146 1314.01 L562.146 1266.49 Z" fill="#000000" fill-rule="nonzero" fill-opacity="1" /><path clip-path="url(#clip070)" d="M646.873 1268.05 L646.873 1274.32 Q643.213 1272.57 639.967 1271.71 Q636.72 1270.86 633.696 1270.86 Q628.445 1270.86 625.58 1272.89 Q622.747 1274.93 622.747 1278.69 Q622.747 1281.84 624.625 1283.46 Q626.535 1285.05 631.818 1286.04 L635.701 1286.83 Q642.895 1288.2 646.3 1291.67 Q649.738 1295.11 649.738 1300.9 Q649.738 1307.81 645.091 1311.37 Q640.476 1314.94 631.532 1314.94 Q628.158 1314.94 624.339 1314.17 Q620.551 1313.41 616.477 1311.91 L616.477 1305.29 Q620.392 1307.49 624.148 1308.6 Q627.903 1309.72 631.532 1309.72 Q637.038 1309.72 640.03 1307.55 Q643.022 1305.39 643.022 1301.38 Q643.022 1297.88 640.858 1295.9 Q638.725 1293.93 633.824 1292.94 L629.909 1292.18 Q622.715 1290.75 619.501 1287.69 Q616.286 1284.64 616.286 1279.19 Q616.286 1272.89 620.71 1269.26 Q625.166 1265.64 632.964 1265.64 Q636.306 1265.64 639.776 1266.24 Q643.245 1266.84 646.873 1268.05 Z" fill="#000000" fill-rule="nonzero" fill-opacity="1" /><polyline clip-path="url(#clip072)" style="stroke:#000000; stroke-linecap:round; stroke-linejoin:round; stroke-width:2; stroke-opacity:0.1; fill:none" points="137.816,1141.6 1008.76,1141.6 "/>
<polyline clip-path="url(#clip072)" style="stroke:#000000; stroke-linecap:round; stroke-linejoin:round; stroke-width:2; stroke-opacity:0.1; fill:none" points="137.816,944.841 1008.76,944.841 "/>
<polyline clip-path="url(#clip072)" style="stroke:#000000; stroke-linecap:round; stroke-linejoin:round; stroke-width:2; stroke-opacity:0.1; fill:none" points="137.816,748.086 1008.76,748.086 "/>
<polyline clip-path="url(#clip072)" style="stroke:#000000; stroke-linecap:round; stroke-linejoin:round; stroke-width:2; stroke-opacity:0.1; fill:none" points="137.816,551.331 1008.76,551.331 "/>
<polyline clip-path="url(#clip072)" style="stroke:#000000; stroke-linecap:round; stroke-linejoin:round; stroke-width:2; stroke-opacity:0.1; fill:none" points="137.816,354.576 1008.76,354.576 "/>
<polyline clip-path="url(#clip072)" style="stroke:#000000; stroke-linecap:round; stroke-linejoin:round; stroke-width:2; stroke-opacity:0.1; fill:none" points="137.816,157.821 1008.76,157.821 "/>
<polyline clip-path="url(#clip070)" style="stroke:#000000; stroke-linecap:round; stroke-linejoin:round; stroke-width:4; stroke-opacity:1; fill:none" points="137.816,1173.47 137.816,47.2441 "/>
<polyline clip-path="url(#clip070)" style="stroke:#000000; stroke-linecap:round; stroke-linejoin:round; stroke-width:4; stroke-opacity:1; fill:none" points="137.816,1141.6 156.713,1141.6 "/>
<polyline clip-path="url(#clip070)" style="stroke:#000000; stroke-linecap:round; stroke-linejoin:round; stroke-width:4; stroke-opacity:1; fill:none" points="137.816,944.841 156.713,944.841 "/>
<polyline clip-path="url(#clip070)" style="stroke:#000000; stroke-linecap:round; stroke-linejoin:round; stroke-width:4; stroke-opacity:1; fill:none" points="137.816,748.086 156.713,748.086 "/>
<polyline clip-path="url(#clip070)" style="stroke:#000000; stroke-linecap:round; stroke-linejoin:round; stroke-width:4; stroke-opacity:1; fill:none" points="137.816,551.331 156.713,551.331 "/>
<polyline clip-path="url(#clip070)" style="stroke:#000000; stroke-linecap:round; stroke-linejoin:round; stroke-width:4; stroke-opacity:1; fill:none" points="137.816,354.576 156.713,354.576 "/>
<polyline clip-path="url(#clip070)" style="stroke:#000000; stroke-linecap:round; stroke-linejoin:round; stroke-width:4; stroke-opacity:1; fill:none" points="137.816,157.821 156.713,157.821 "/>
<path clip-path="url(#clip070)" d="M94.1912 1127.4 Q90.5801 1127.4 88.7514 1130.96 Q86.9458 1134.5 86.9458 1141.63 Q86.9458 1148.74 88.7514 1152.3 Q90.5801 1155.84 94.1912 1155.84 Q97.8254 1155.84 99.6309 1152.3 Q101.46 1148.74 101.46 1141.63 Q101.46 1134.5 99.6309 1130.96 Q97.8254 1127.4 94.1912 1127.4 M94.1912 1123.69 Q100.001 1123.69 103.057 1128.3 Q106.136 1132.88 106.136 1141.63 Q106.136 1150.36 103.057 1154.96 Q100.001 1159.55 94.1912 1159.55 Q88.381 1159.55 85.3023 1154.96 Q82.2468 1150.36 82.2468 1141.63 Q82.2468 1132.88 85.3023 1128.3 Q88.381 1123.69 94.1912 1123.69 Z" fill="#000000" fill-rule="nonzero" fill-opacity="1" /><path clip-path="url(#clip070)" d="M85.2329 927.561 L103.589 927.561 L103.589 931.496 L89.5153 931.496 L89.5153 939.969 Q90.5338 939.621 91.5523 939.459 Q92.5708 939.274 93.5893 939.274 Q99.3763 939.274 102.756 942.445 Q106.136 945.617 106.136 951.033 Q106.136 956.612 102.663 959.714 Q99.1911 962.793 92.8717 962.793 Q90.6958 962.793 88.4273 962.422 Q86.1819 962.052 83.7746 961.311 L83.7746 956.612 Q85.8579 957.746 88.0801 958.302 Q90.3023 958.857 92.7791 958.857 Q96.7837 958.857 99.1217 956.751 Q101.46 954.644 101.46 951.033 Q101.46 947.422 99.1217 945.316 Q96.7837 943.209 92.7791 943.209 Q90.9041 943.209 89.0292 943.626 Q87.1773 944.043 85.2329 944.922 L85.2329 927.561 Z" fill="#000000" fill-rule="nonzero" fill-opacity="1" /><path clip-path="url(#clip070)" d="M54.8395 761.431 L62.4784 761.431 L62.4784 735.065 L54.1682 736.732 L54.1682 732.473 L62.4321 730.806 L67.108 730.806 L67.108 761.431 L74.7468 761.431 L74.7468 765.366 L54.8395 765.366 L54.8395 761.431 Z" fill="#000000" fill-rule="nonzero" fill-opacity="1" /><path clip-path="url(#clip070)" d="M94.1912 733.885 Q90.5801 733.885 88.7514 737.45 Q86.9458 740.991 86.9458 748.121 Q86.9458 755.227 88.7514 758.792 Q90.5801 762.334 94.1912 762.334 Q97.8254 762.334 99.6309 758.792 Q101.46 755.227 101.46 748.121 Q101.46 740.991 99.6309 737.45 Q97.8254 733.885 94.1912 733.885 M94.1912 730.181 Q100.001 730.181 103.057 734.788 Q106.136 739.371 106.136 748.121 Q106.136 756.848 103.057 761.454 Q100.001 766.037 94.1912 766.037 Q88.381 766.037 85.3023 761.454 Q82.2468 756.848 82.2468 748.121 Q82.2468 739.371 85.3023 734.788 Q88.381 730.181 94.1912 730.181 Z" fill="#000000" fill-rule="nonzero" fill-opacity="1" /><path clip-path="url(#clip070)" d="M55.8349 564.676 L63.4737 564.676 L63.4737 538.31 L55.1636 539.977 L55.1636 535.718 L63.4274 534.051 L68.1033 534.051 L68.1033 564.676 L75.7422 564.676 L75.7422 568.611 L55.8349 568.611 L55.8349 564.676 Z" fill="#000000" fill-rule="nonzero" fill-opacity="1" /><path clip-path="url(#clip070)" d="M85.2329 534.051 L103.589 534.051 L103.589 537.986 L89.5153 537.986 L89.5153 546.458 Q90.5338 546.111 91.5523 545.949 Q92.5708 545.764 93.5893 545.764 Q99.3763 545.764 102.756 548.935 Q106.136 552.106 106.136 557.523 Q106.136 563.102 102.663 566.203 Q99.1911 569.282 92.8717 569.282 Q90.6958 569.282 88.4273 568.912 Q86.1819 568.541 83.7746 567.801 L83.7746 563.102 Q85.8579 564.236 88.0801 564.791 Q90.3023 565.347 92.7791 565.347 Q96.7837 565.347 99.1217 563.241 Q101.46 561.134 101.46 557.523 Q101.46 553.912 99.1217 551.805 Q96.7837 549.699 92.7791 549.699 Q90.9041 549.699 89.0292 550.116 Q87.1773 550.532 85.2329 551.412 L85.2329 534.051 Z" fill="#000000" fill-rule="nonzero" fill-opacity="1" /><path clip-path="url(#clip070)" d="M58.0571 367.921 L74.3765 367.921 L74.3765 371.856 L52.4321 371.856 L52.4321 367.921 Q55.0941 365.166 59.6775 360.536 Q64.2839 355.884 65.4645 354.541 Q67.7098 352.018 68.5894 350.282 Q69.4922 348.522 69.4922 346.833 Q69.4922 344.078 67.5478 342.342 Q65.6265 340.606 62.5247 340.606 Q60.3256 340.606 57.8719 341.37 Q55.4414 342.134 52.6636 343.685 L52.6636 338.962 Q55.4877 337.828 57.9414 337.249 Q60.395 336.671 62.4321 336.671 Q67.8024 336.671 70.9968 339.356 Q74.1913 342.041 74.1913 346.532 Q74.1913 348.661 73.3811 350.583 Q72.5941 352.481 70.4876 355.073 Q69.9089 355.745 66.807 358.962 Q63.7052 362.157 58.0571 367.921 Z" fill="#000000" fill-rule="nonzero" fill-opacity="1" /><path clip-path="url(#clip070)" d="M94.1912 340.374 Q90.5801 340.374 88.7514 343.939 Q86.9458 347.481 86.9458 354.61 Q86.9458 361.717 88.7514 365.282 Q90.5801 368.823 94.1912 368.823 Q97.8254 368.823 99.6309 365.282 Q101.46 361.717 101.46 354.61 Q101.46 347.481 99.6309 343.939 Q97.8254 340.374 94.1912 340.374 M94.1912 336.671 Q100.001 336.671 103.057 341.277 Q106.136 345.86 106.136 354.61 Q106.136 363.337 103.057 367.944 Q100.001 372.527 94.1912 372.527 Q88.381 372.527 85.3023 367.944 Q82.2468 363.337 82.2468 354.61 Q82.2468 345.86 85.3023 341.277 Q88.381 336.671 94.1912 336.671 Z" fill="#000000" fill-rule="nonzero" fill-opacity="1" /><path clip-path="url(#clip070)" d="M59.0525 171.165 L75.3718 171.165 L75.3718 175.101 L53.4275 175.101 L53.4275 171.165 Q56.0895 168.411 60.6728 163.781 Q65.2793 159.128 66.4598 157.786 Q68.7052 155.263 69.5848 153.527 Q70.4876 151.767 70.4876 150.077 Q70.4876 147.323 68.5432 145.587 Q66.6219 143.851 63.52 143.851 Q61.321 143.851 58.8673 144.615 Q56.4367 145.378 53.659 146.929 L53.659 142.207 Q56.483 141.073 58.9367 140.494 Q61.3904 139.916 63.4274 139.916 Q68.7978 139.916 71.9922 142.601 Q75.1866 145.286 75.1866 149.777 Q75.1866 151.906 74.3765 153.827 Q73.5894 155.726 71.4829 158.318 Q70.9042 158.989 67.8024 162.207 Q64.7006 165.401 59.0525 171.165 Z" fill="#000000" fill-rule="nonzero" fill-opacity="1" /><path clip-path="url(#clip070)" d="M85.2329 140.541 L103.589 140.541 L103.589 144.476 L89.5153 144.476 L89.5153 152.948 Q90.5338 152.601 91.5523 152.439 Q92.5708 152.253 93.5893 152.253 Q99.3763 152.253 102.756 155.425 Q106.136 158.596 106.136 164.013 Q106.136 169.591 102.663 172.693 Q99.1911 175.772 92.8717 175.772 Q90.6958 175.772 88.4273 175.401 Q86.1819 175.031 83.7746 174.29 L83.7746 169.591 Q85.8579 170.726 88.0801 171.281 Q90.3023 171.837 92.7791 171.837 Q96.7837 171.837 99.1217 169.73 Q101.46 167.624 101.46 164.013 Q101.46 160.402 99.1217 158.295 Q96.7837 156.189 92.7791 156.189 Q90.9041 156.189 89.0292 156.605 Q87.1773 157.022 85.2329 157.902 L85.2329 140.541 Z" fill="#000000" fill-rule="nonzero" fill-opacity="1" /><path clip-path="url(#clip072)" d="M185.719 787.437 L185.719 1141.6 L196.337 1141.6 L196.337 787.437 L185.719 787.437 L185.719 787.437  Z" fill="#009af9" fill-rule="evenodd" fill-opacity="1"/>
<polyline clip-path="url(#clip072)" style="stroke:#000000; stroke-linecap:round; stroke-linejoin:round; stroke-width:4; stroke-opacity:1; fill:none" points="185.719,787.437 185.719,1141.6 196.337,1141.6 196.337,787.437 185.719,787.437 "/>
<path clip-path="url(#clip072)" d="M196.337 669.384 L196.337 1141.6 L206.955 1141.6 L206.955 669.384 L196.337 669.384 L196.337 669.384  Z" fill="#009af9" fill-rule="evenodd" fill-opacity="1"/>
<polyline clip-path="url(#clip072)" style="stroke:#000000; stroke-linecap:round; stroke-linejoin:round; stroke-width:4; stroke-opacity:1; fill:none" points="196.337,669.384 196.337,1141.6 206.955,1141.6 206.955,669.384 196.337,669.384 "/>
<path clip-path="url(#clip072)" d="M206.955 275.874 L206.955 1141.6 L217.574 1141.6 L217.574 275.874 L206.955 275.874 L206.955 275.874  Z" fill="#009af9" fill-rule="evenodd" fill-opacity="1"/>
<polyline clip-path="url(#clip072)" style="stroke:#000000; stroke-linecap:round; stroke-linejoin:round; stroke-width:4; stroke-opacity:1; fill:none" points="206.955,275.874 206.955,1141.6 217.574,1141.6 217.574,275.874 206.955,275.874 "/>
<path clip-path="url(#clip072)" d="M217.574 79.1184 L217.574 1141.6 L228.192 1141.6 L228.192 79.1184 L217.574 79.1184 L217.574 79.1184  Z" fill="#009af9" fill-rule="evenodd" fill-opacity="1"/>
<polyline clip-path="url(#clip072)" style="stroke:#000000; stroke-linecap:round; stroke-linejoin:round; stroke-width:4; stroke-opacity:1; fill:none" points="217.574,79.1184 217.574,1141.6 228.192,1141.6 228.192,79.1184 217.574,79.1184 "/>
<path clip-path="url(#clip072)" d="M228.192 866.139 L228.192 1141.6 L238.81 1141.6 L238.81 866.139 L228.192 866.139 L228.192 866.139  Z" fill="#009af9" fill-rule="evenodd" fill-opacity="1"/>
<polyline clip-path="url(#clip072)" style="stroke:#000000; stroke-linecap:round; stroke-linejoin:round; stroke-width:4; stroke-opacity:1; fill:none" points="228.192,866.139 228.192,1141.6 238.81,1141.6 238.81,866.139 228.192,866.139 "/>
<path clip-path="url(#clip072)" d="M238.81 393.927 L238.81 1141.6 L249.428 1141.6 L249.428 393.927 L238.81 393.927 L238.81 393.927  Z" fill="#009af9" fill-rule="evenodd" fill-opacity="1"/>
<polyline clip-path="url(#clip072)" style="stroke:#000000; stroke-linecap:round; stroke-linejoin:round; stroke-width:4; stroke-opacity:1; fill:none" points="238.81,393.927 238.81,1141.6 249.428,1141.6 249.428,393.927 238.81,393.927 "/>
<path clip-path="url(#clip072)" d="M249.428 590.682 L249.428 1141.6 L260.047 1141.6 L260.047 590.682 L249.428 590.682 L249.428 590.682  Z" fill="#009af9" fill-rule="evenodd" fill-opacity="1"/>
<polyline clip-path="url(#clip072)" style="stroke:#000000; stroke-linecap:round; stroke-linejoin:round; stroke-width:4; stroke-opacity:1; fill:none" points="249.428,590.682 249.428,1141.6 260.047,1141.6 260.047,590.682 249.428,590.682 "/>
<path clip-path="url(#clip072)" d="M260.047 787.437 L260.047 1141.6 L270.665 1141.6 L270.665 787.437 L260.047 787.437 L260.047 787.437  Z" fill="#009af9" fill-rule="evenodd" fill-opacity="1"/>
<polyline clip-path="url(#clip072)" style="stroke:#000000; stroke-linecap:round; stroke-linejoin:round; stroke-width:4; stroke-opacity:1; fill:none" points="260.047,787.437 260.047,1141.6 270.665,1141.6 270.665,787.437 260.047,787.437 "/>
<path clip-path="url(#clip072)" d="M270.665 472.629 L270.665 1141.6 L281.283 1141.6 L281.283 472.629 L270.665 472.629 L270.665 472.629  Z" fill="#009af9" fill-rule="evenodd" fill-opacity="1"/>
<polyline clip-path="url(#clip072)" style="stroke:#000000; stroke-linecap:round; stroke-linejoin:round; stroke-width:4; stroke-opacity:1; fill:none" points="270.665,472.629 270.665,1141.6 281.283,1141.6 281.283,472.629 270.665,472.629 "/>
<path clip-path="url(#clip072)" d="M281.283 787.437 L281.283 1141.6 L291.902 1141.6 L291.902 787.437 L281.283 787.437 L281.283 787.437  Z" fill="#009af9" fill-rule="evenodd" fill-opacity="1"/>
<polyline clip-path="url(#clip072)" style="stroke:#000000; stroke-linecap:round; stroke-linejoin:round; stroke-width:4; stroke-opacity:1; fill:none" points="281.283,787.437 281.283,1141.6 291.902,1141.6 291.902,787.437 281.283,787.437 "/>
<path clip-path="url(#clip072)" d="M291.902 944.841 L291.902 1141.6 L302.52 1141.6 L302.52 944.841 L291.902 944.841 L291.902 944.841  Z" fill="#009af9" fill-rule="evenodd" fill-opacity="1"/>
<polyline clip-path="url(#clip072)" style="stroke:#000000; stroke-linecap:round; stroke-linejoin:round; stroke-width:4; stroke-opacity:1; fill:none" points="291.902,944.841 291.902,1141.6 302.52,1141.6 302.52,944.841 291.902,944.841 "/>
<path clip-path="url(#clip072)" d="M302.52 669.384 L302.52 1141.6 L313.138 1141.6 L313.138 669.384 L302.52 669.384 L302.52 669.384  Z" fill="#009af9" fill-rule="evenodd" fill-opacity="1"/>
<polyline clip-path="url(#clip072)" style="stroke:#000000; stroke-linecap:round; stroke-linejoin:round; stroke-width:4; stroke-opacity:1; fill:none" points="302.52,669.384 302.52,1141.6 313.138,1141.6 313.138,669.384 302.52,669.384 "/>
<path clip-path="url(#clip072)" d="M313.138 787.437 L313.138 1141.6 L323.756 1141.6 L323.756 787.437 L313.138 787.437 L313.138 787.437  Z" fill="#009af9" fill-rule="evenodd" fill-opacity="1"/>
<polyline clip-path="url(#clip072)" style="stroke:#000000; stroke-linecap:round; stroke-linejoin:round; stroke-width:4; stroke-opacity:1; fill:none" points="313.138,787.437 313.138,1141.6 323.756,1141.6 323.756,787.437 313.138,787.437 "/>
<path clip-path="url(#clip072)" d="M323.756 787.437 L323.756 1141.6 L334.375 1141.6 L334.375 787.437 L323.756 787.437 L323.756 787.437  Z" fill="#009af9" fill-rule="evenodd" fill-opacity="1"/>
<polyline clip-path="url(#clip072)" style="stroke:#000000; stroke-linecap:round; stroke-linejoin:round; stroke-width:4; stroke-opacity:1; fill:none" points="323.756,787.437 323.756,1141.6 334.375,1141.6 334.375,787.437 323.756,787.437 "/>
<path clip-path="url(#clip072)" d="M334.375 866.139 L334.375 1141.6 L344.993 1141.6 L344.993 866.139 L334.375 866.139 L334.375 866.139  Z" fill="#009af9" fill-rule="evenodd" fill-opacity="1"/>
<polyline clip-path="url(#clip072)" style="stroke:#000000; stroke-linecap:round; stroke-linejoin:round; stroke-width:4; stroke-opacity:1; fill:none" points="334.375,866.139 334.375,1141.6 344.993,1141.6 344.993,866.139 334.375,866.139 "/>
<path clip-path="url(#clip072)" d="M344.993 866.139 L344.993 1141.6 L355.611 1141.6 L355.611 866.139 L344.993 866.139 L344.993 866.139  Z" fill="#009af9" fill-rule="evenodd" fill-opacity="1"/>
<polyline clip-path="url(#clip072)" style="stroke:#000000; stroke-linecap:round; stroke-linejoin:round; stroke-width:4; stroke-opacity:1; fill:none" points="344.993,866.139 344.993,1141.6 355.611,1141.6 355.611,866.139 344.993,866.139 "/>
<path clip-path="url(#clip072)" d="M355.611 905.49 L355.611 1141.6 L366.229 1141.6 L366.229 905.49 L355.611 905.49 L355.611 905.49  Z" fill="#009af9" fill-rule="evenodd" fill-opacity="1"/>
<polyline clip-path="url(#clip072)" style="stroke:#000000; stroke-linecap:round; stroke-linejoin:round; stroke-width:4; stroke-opacity:1; fill:none" points="355.611,905.49 355.611,1141.6 366.229,1141.6 366.229,905.49 355.611,905.49 "/>
<path clip-path="url(#clip072)" d="M366.229 984.192 L366.229 1141.6 L376.848 1141.6 L376.848 984.192 L366.229 984.192 L366.229 984.192  Z" fill="#009af9" fill-rule="evenodd" fill-opacity="1"/>
<polyline clip-path="url(#clip072)" style="stroke:#000000; stroke-linecap:round; stroke-linejoin:round; stroke-width:4; stroke-opacity:1; fill:none" points="366.229,984.192 366.229,1141.6 376.848,1141.6 376.848,984.192 366.229,984.192 "/>
<path clip-path="url(#clip072)" d="M376.848 984.192 L376.848 1141.6 L387.466 1141.6 L387.466 984.192 L376.848 984.192 L376.848 984.192  Z" fill="#009af9" fill-rule="evenodd" fill-opacity="1"/>
<polyline clip-path="url(#clip072)" style="stroke:#000000; stroke-linecap:round; stroke-linejoin:round; stroke-width:4; stroke-opacity:1; fill:none" points="376.848,984.192 376.848,1141.6 387.466,1141.6 387.466,984.192 376.848,984.192 "/>
<path clip-path="url(#clip072)" d="M387.466 984.192 L387.466 1141.6 L398.084 1141.6 L398.084 984.192 L387.466 984.192 L387.466 984.192  Z" fill="#009af9" fill-rule="evenodd" fill-opacity="1"/>
<polyline clip-path="url(#clip072)" style="stroke:#000000; stroke-linecap:round; stroke-linejoin:round; stroke-width:4; stroke-opacity:1; fill:none" points="387.466,984.192 387.466,1141.6 398.084,1141.6 398.084,984.192 387.466,984.192 "/>
<path clip-path="url(#clip072)" d="M398.084 984.192 L398.084 1141.6 L408.703 1141.6 L408.703 984.192 L398.084 984.192 L398.084 984.192  Z" fill="#009af9" fill-rule="evenodd" fill-opacity="1"/>
<polyline clip-path="url(#clip072)" style="stroke:#000000; stroke-linecap:round; stroke-linejoin:round; stroke-width:4; stroke-opacity:1; fill:none" points="398.084,984.192 398.084,1141.6 408.703,1141.6 408.703,984.192 398.084,984.192 "/>
<path clip-path="url(#clip072)" d="M408.703 905.49 L408.703 1141.6 L419.321 1141.6 L419.321 905.49 L408.703 905.49 L408.703 905.49  Z" fill="#009af9" fill-rule="evenodd" fill-opacity="1"/>
<polyline clip-path="url(#clip072)" style="stroke:#000000; stroke-linecap:round; stroke-linejoin:round; stroke-width:4; stroke-opacity:1; fill:none" points="408.703,905.49 408.703,1141.6 419.321,1141.6 419.321,905.49 408.703,905.49 "/>
<path clip-path="url(#clip072)" d="M419.321 944.841 L419.321 1141.6 L429.939 1141.6 L429.939 944.841 L419.321 944.841 L419.321 944.841  Z" fill="#009af9" fill-rule="evenodd" fill-opacity="1"/>
<polyline clip-path="url(#clip072)" style="stroke:#000000; stroke-linecap:round; stroke-linejoin:round; stroke-width:4; stroke-opacity:1; fill:none" points="419.321,944.841 419.321,1141.6 429.939,1141.6 429.939,944.841 419.321,944.841 "/>
<path clip-path="url(#clip072)" d="M429.939 1062.89 L429.939 1141.6 L440.557 1141.6 L440.557 1062.89 L429.939 1062.89 L429.939 1062.89  Z" fill="#009af9" fill-rule="evenodd" fill-opacity="1"/>
<polyline clip-path="url(#clip072)" style="stroke:#000000; stroke-linecap:round; stroke-linejoin:round; stroke-width:4; stroke-opacity:1; fill:none" points="429.939,1062.89 429.939,1141.6 440.557,1141.6 440.557,1062.89 429.939,1062.89 "/>
<path clip-path="url(#clip072)" d="M440.557 1102.25 L440.557 1141.6 L451.176 1141.6 L451.176 1102.25 L440.557 1102.25 L440.557 1102.25  Z" fill="#009af9" fill-rule="evenodd" fill-opacity="1"/>
<polyline clip-path="url(#clip072)" style="stroke:#000000; stroke-linecap:round; stroke-linejoin:round; stroke-width:4; stroke-opacity:1; fill:none" points="440.557,1102.25 440.557,1141.6 451.176,1141.6 451.176,1102.25 440.557,1102.25 "/>
<path clip-path="url(#clip072)" d="M451.176 1062.89 L451.176 1141.6 L461.794 1141.6 L461.794 1062.89 L451.176 1062.89 L451.176 1062.89  Z" fill="#009af9" fill-rule="evenodd" fill-opacity="1"/>
<polyline clip-path="url(#clip072)" style="stroke:#000000; stroke-linecap:round; stroke-linejoin:round; stroke-width:4; stroke-opacity:1; fill:none" points="451.176,1062.89 451.176,1141.6 461.794,1141.6 461.794,1062.89 451.176,1062.89 "/>
<path clip-path="url(#clip072)" d="M461.794 1062.89 L461.794 1141.6 L472.412 1141.6 L472.412 1062.89 L461.794 1062.89 L461.794 1062.89  Z" fill="#009af9" fill-rule="evenodd" fill-opacity="1"/>
<polyline clip-path="url(#clip072)" style="stroke:#000000; stroke-linecap:round; stroke-linejoin:round; stroke-width:4; stroke-opacity:1; fill:none" points="461.794,1062.89 461.794,1141.6 472.412,1141.6 472.412,1062.89 461.794,1062.89 "/>
<path clip-path="url(#clip072)" d="M472.412 1062.89 L472.412 1141.6 L483.03 1141.6 L483.03 1062.89 L472.412 1062.89 L472.412 1062.89  Z" fill="#009af9" fill-rule="evenodd" fill-opacity="1"/>
<polyline clip-path="url(#clip072)" style="stroke:#000000; stroke-linecap:round; stroke-linejoin:round; stroke-width:4; stroke-opacity:1; fill:none" points="472.412,1062.89 472.412,1141.6 483.03,1141.6 483.03,1062.89 472.412,1062.89 "/>
<path clip-path="url(#clip072)" d="M483.03 1102.25 L483.03 1141.6 L493.649 1141.6 L493.649 1102.25 L483.03 1102.25 L483.03 1102.25  Z" fill="#009af9" fill-rule="evenodd" fill-opacity="1"/>
<polyline clip-path="url(#clip072)" style="stroke:#000000; stroke-linecap:round; stroke-linejoin:round; stroke-width:4; stroke-opacity:1; fill:none" points="483.03,1102.25 483.03,1141.6 493.649,1141.6 493.649,1102.25 483.03,1102.25 "/>
<path clip-path="url(#clip072)" d="M493.649 1102.25 L493.649 1141.6 L504.267 1141.6 L504.267 1102.25 L493.649 1102.25 L493.649 1102.25  Z" fill="#009af9" fill-rule="evenodd" fill-opacity="1"/>
<polyline clip-path="url(#clip072)" style="stroke:#000000; stroke-linecap:round; stroke-linejoin:round; stroke-width:4; stroke-opacity:1; fill:none" points="493.649,1102.25 493.649,1141.6 504.267,1141.6 504.267,1102.25 493.649,1102.25 "/>
<path clip-path="url(#clip072)" d="M504.267 1023.54 L504.267 1141.6 L514.885 1141.6 L514.885 1023.54 L504.267 1023.54 L504.267 1023.54  Z" fill="#009af9" fill-rule="evenodd" fill-opacity="1"/>
<polyline clip-path="url(#clip072)" style="stroke:#000000; stroke-linecap:round; stroke-linejoin:round; stroke-width:4; stroke-opacity:1; fill:none" points="504.267,1023.54 504.267,1141.6 514.885,1141.6 514.885,1023.54 504.267,1023.54 "/>
<path clip-path="url(#clip072)" d="M514.885 1062.89 L514.885 1141.6 L525.504 1141.6 L525.504 1062.89 L514.885 1062.89 L514.885 1062.89  Z" fill="#009af9" fill-rule="evenodd" fill-opacity="1"/>
<polyline clip-path="url(#clip072)" style="stroke:#000000; stroke-linecap:round; stroke-linejoin:round; stroke-width:4; stroke-opacity:1; fill:none" points="514.885,1062.89 514.885,1141.6 525.504,1141.6 525.504,1062.89 514.885,1062.89 "/>
<path clip-path="url(#clip072)" d="M525.504 1141.6 L525.504 1141.6 L536.122 1141.6 L536.122 1141.6 L525.504 1141.6 L525.504 1141.6  Z" fill="#009af9" fill-rule="evenodd" fill-opacity="1"/>
<polyline clip-path="url(#clip072)" style="stroke:#000000; stroke-linecap:round; stroke-linejoin:round; stroke-width:4; stroke-opacity:1; fill:none" points="525.504,1141.6 525.504,1141.6 536.122,1141.6 525.504,1141.6 "/>
<path clip-path="url(#clip072)" d="M536.122 1023.54 L536.122 1141.6 L546.74 1141.6 L546.74 1023.54 L536.122 1023.54 L536.122 1023.54  Z" fill="#009af9" fill-rule="evenodd" fill-opacity="1"/>
<polyline clip-path="url(#clip072)" style="stroke:#000000; stroke-linecap:round; stroke-linejoin:round; stroke-width:4; stroke-opacity:1; fill:none" points="536.122,1023.54 536.122,1141.6 546.74,1141.6 546.74,1023.54 536.122,1023.54 "/>
<path clip-path="url(#clip072)" d="M546.74 1102.25 L546.74 1141.6 L557.358 1141.6 L557.358 1102.25 L546.74 1102.25 L546.74 1102.25  Z" fill="#009af9" fill-rule="evenodd" fill-opacity="1"/>
<polyline clip-path="url(#clip072)" style="stroke:#000000; stroke-linecap:round; stroke-linejoin:round; stroke-width:4; stroke-opacity:1; fill:none" points="546.74,1102.25 546.74,1141.6 557.358,1141.6 557.358,1102.25 546.74,1102.25 "/>
<path clip-path="url(#clip072)" d="M557.358 1102.25 L557.358 1141.6 L567.977 1141.6 L567.977 1102.25 L557.358 1102.25 L557.358 1102.25  Z" fill="#009af9" fill-rule="evenodd" fill-opacity="1"/>
<polyline clip-path="url(#clip072)" style="stroke:#000000; stroke-linecap:round; stroke-linejoin:round; stroke-width:4; stroke-opacity:1; fill:none" points="557.358,1102.25 557.358,1141.6 567.977,1141.6 567.977,1102.25 557.358,1102.25 "/>
<path clip-path="url(#clip072)" d="M567.977 1062.89 L567.977 1141.6 L578.595 1141.6 L578.595 1062.89 L567.977 1062.89 L567.977 1062.89  Z" fill="#009af9" fill-rule="evenodd" fill-opacity="1"/>
<polyline clip-path="url(#clip072)" style="stroke:#000000; stroke-linecap:round; stroke-linejoin:round; stroke-width:4; stroke-opacity:1; fill:none" points="567.977,1062.89 567.977,1141.6 578.595,1141.6 578.595,1062.89 567.977,1062.89 "/>
<path clip-path="url(#clip072)" d="M578.595 1141.6 L578.595 1141.6 L589.213 1141.6 L589.213 1141.6 L578.595 1141.6 L578.595 1141.6  Z" fill="#009af9" fill-rule="evenodd" fill-opacity="1"/>
<polyline clip-path="url(#clip072)" style="stroke:#000000; stroke-linecap:round; stroke-linejoin:round; stroke-width:4; stroke-opacity:1; fill:none" points="578.595,1141.6 578.595,1141.6 589.213,1141.6 578.595,1141.6 "/>
<path clip-path="url(#clip072)" d="M589.213 1023.54 L589.213 1141.6 L599.831 1141.6 L599.831 1023.54 L589.213 1023.54 L589.213 1023.54  Z" fill="#009af9" fill-rule="evenodd" fill-opacity="1"/>
<polyline clip-path="url(#clip072)" style="stroke:#000000; stroke-linecap:round; stroke-linejoin:round; stroke-width:4; stroke-opacity:1; fill:none" points="589.213,1023.54 589.213,1141.6 599.831,1141.6 599.831,1023.54 589.213,1023.54 "/>
<path clip-path="url(#clip072)" d="M599.831 1023.54 L599.831 1141.6 L610.45 1141.6 L610.45 1023.54 L599.831 1023.54 L599.831 1023.54  Z" fill="#009af9" fill-rule="evenodd" fill-opacity="1"/>
<polyline clip-path="url(#clip072)" style="stroke:#000000; stroke-linecap:round; stroke-linejoin:round; stroke-width:4; stroke-opacity:1; fill:none" points="599.831,1023.54 599.831,1141.6 610.45,1141.6 610.45,1023.54 599.831,1023.54 "/>
<path clip-path="url(#clip072)" d="M610.45 1141.6 L610.45 1141.6 L621.068 1141.6 L621.068 1141.6 L610.45 1141.6 L610.45 1141.6  Z" fill="#009af9" fill-rule="evenodd" fill-opacity="1"/>
<polyline clip-path="url(#clip072)" style="stroke:#000000; stroke-linecap:round; stroke-linejoin:round; stroke-width:4; stroke-opacity:1; fill:none" points="610.45,1141.6 610.45,1141.6 621.068,1141.6 610.45,1141.6 "/>
<path clip-path="url(#clip072)" d="M621.068 1141.6 L621.068 1141.6 L631.686 1141.6 L631.686 1141.6 L621.068 1141.6 L621.068 1141.6  Z" fill="#009af9" fill-rule="evenodd" fill-opacity="1"/>
<polyline clip-path="url(#clip072)" style="stroke:#000000; stroke-linecap:round; stroke-linejoin:round; stroke-width:4; stroke-opacity:1; fill:none" points="621.068,1141.6 621.068,1141.6 631.686,1141.6 621.068,1141.6 "/>
<path clip-path="url(#clip072)" d="M631.686 1102.25 L631.686 1141.6 L642.304 1141.6 L642.304 1102.25 L631.686 1102.25 L631.686 1102.25  Z" fill="#009af9" fill-rule="evenodd" fill-opacity="1"/>
<polyline clip-path="url(#clip072)" style="stroke:#000000; stroke-linecap:round; stroke-linejoin:round; stroke-width:4; stroke-opacity:1; fill:none" points="631.686,1102.25 631.686,1141.6 642.304,1141.6 642.304,1102.25 631.686,1102.25 "/>
<path clip-path="url(#clip072)" d="M642.304 1141.6 L642.304 1141.6 L652.923 1141.6 L652.923 1141.6 L642.304 1141.6 L642.304 1141.6  Z" fill="#009af9" fill-rule="evenodd" fill-opacity="1"/>
<polyline clip-path="url(#clip072)" style="stroke:#000000; stroke-linecap:round; stroke-linejoin:round; stroke-width:4; stroke-opacity:1; fill:none" points="642.304,1141.6 642.304,1141.6 652.923,1141.6 642.304,1141.6 "/>
<path clip-path="url(#clip072)" d="M652.923 1102.25 L652.923 1141.6 L663.541 1141.6 L663.541 1102.25 L652.923 1102.25 L652.923 1102.25  Z" fill="#009af9" fill-rule="evenodd" fill-opacity="1"/>
<polyline clip-path="url(#clip072)" style="stroke:#000000; stroke-linecap:round; stroke-linejoin:round; stroke-width:4; stroke-opacity:1; fill:none" points="652.923,1102.25 652.923,1141.6 663.541,1141.6 663.541,1102.25 652.923,1102.25 "/>
<path clip-path="url(#clip072)" d="M663.541 1062.89 L663.541 1141.6 L674.159 1141.6 L674.159 1062.89 L663.541 1062.89 L663.541 1062.89  Z" fill="#009af9" fill-rule="evenodd" fill-opacity="1"/>
<polyline clip-path="url(#clip072)" style="stroke:#000000; stroke-linecap:round; stroke-linejoin:round; stroke-width:4; stroke-opacity:1; fill:none" points="663.541,1062.89 663.541,1141.6 674.159,1141.6 674.159,1062.89 663.541,1062.89 "/>
<path clip-path="url(#clip072)" d="M674.159 1102.25 L674.159 1141.6 L684.778 1141.6 L684.778 1102.25 L674.159 1102.25 L674.159 1102.25  Z" fill="#009af9" fill-rule="evenodd" fill-opacity="1"/>
<polyline clip-path="url(#clip072)" style="stroke:#000000; stroke-linecap:round; stroke-linejoin:round; stroke-width:4; stroke-opacity:1; fill:none" points="674.159,1102.25 674.159,1141.6 684.778,1141.6 684.778,1102.25 674.159,1102.25 "/>
<path clip-path="url(#clip072)" d="M684.778 1141.6 L684.778 1141.6 L695.396 1141.6 L695.396 1141.6 L684.778 1141.6 L684.778 1141.6  Z" fill="#009af9" fill-rule="evenodd" fill-opacity="1"/>
<polyline clip-path="url(#clip072)" style="stroke:#000000; stroke-linecap:round; stroke-linejoin:round; stroke-width:4; stroke-opacity:1; fill:none" points="684.778,1141.6 684.778,1141.6 695.396,1141.6 684.778,1141.6 "/>
<path clip-path="url(#clip072)" d="M695.396 1102.25 L695.396 1141.6 L706.014 1141.6 L706.014 1102.25 L695.396 1102.25 L695.396 1102.25  Z" fill="#009af9" fill-rule="evenodd" fill-opacity="1"/>
<polyline clip-path="url(#clip072)" style="stroke:#000000; stroke-linecap:round; stroke-linejoin:round; stroke-width:4; stroke-opacity:1; fill:none" points="695.396,1102.25 695.396,1141.6 706.014,1141.6 706.014,1102.25 695.396,1102.25 "/>
<path clip-path="url(#clip072)" d="M706.014 1102.25 L706.014 1141.6 L716.632 1141.6 L716.632 1102.25 L706.014 1102.25 L706.014 1102.25  Z" fill="#009af9" fill-rule="evenodd" fill-opacity="1"/>
<polyline clip-path="url(#clip072)" style="stroke:#000000; stroke-linecap:round; stroke-linejoin:round; stroke-width:4; stroke-opacity:1; fill:none" points="706.014,1102.25 706.014,1141.6 716.632,1141.6 716.632,1102.25 706.014,1102.25 "/>
<path clip-path="url(#clip072)" d="M716.632 1141.6 L716.632 1141.6 L727.251 1141.6 L727.251 1141.6 L716.632 1141.6 L716.632 1141.6  Z" fill="#009af9" fill-rule="evenodd" fill-opacity="1"/>
<polyline clip-path="url(#clip072)" style="stroke:#000000; stroke-linecap:round; stroke-linejoin:round; stroke-width:4; stroke-opacity:1; fill:none" points="716.632,1141.6 716.632,1141.6 727.251,1141.6 716.632,1141.6 "/>
<path clip-path="url(#clip072)" d="M727.251 1141.6 L727.251 1141.6 L737.869 1141.6 L737.869 1141.6 L727.251 1141.6 L727.251 1141.6  Z" fill="#009af9" fill-rule="evenodd" fill-opacity="1"/>
<polyline clip-path="url(#clip072)" style="stroke:#000000; stroke-linecap:round; stroke-linejoin:round; stroke-width:4; stroke-opacity:1; fill:none" points="727.251,1141.6 727.251,1141.6 737.869,1141.6 727.251,1141.6 "/>
<path clip-path="url(#clip072)" d="M737.869 1102.25 L737.869 1141.6 L748.487 1141.6 L748.487 1102.25 L737.869 1102.25 L737.869 1102.25  Z" fill="#009af9" fill-rule="evenodd" fill-opacity="1"/>
<polyline clip-path="url(#clip072)" style="stroke:#000000; stroke-linecap:round; stroke-linejoin:round; stroke-width:4; stroke-opacity:1; fill:none" points="737.869,1102.25 737.869,1141.6 748.487,1141.6 748.487,1102.25 737.869,1102.25 "/>
<path clip-path="url(#clip072)" d="M748.487 1102.25 L748.487 1141.6 L759.105 1141.6 L759.105 1102.25 L748.487 1102.25 L748.487 1102.25  Z" fill="#009af9" fill-rule="evenodd" fill-opacity="1"/>
<polyline clip-path="url(#clip072)" style="stroke:#000000; stroke-linecap:round; stroke-linejoin:round; stroke-width:4; stroke-opacity:1; fill:none" points="748.487,1102.25 748.487,1141.6 759.105,1141.6 759.105,1102.25 748.487,1102.25 "/>
<path clip-path="url(#clip072)" d="M759.105 1141.6 L759.105 1141.6 L769.724 1141.6 L769.724 1141.6 L759.105 1141.6 L759.105 1141.6  Z" fill="#009af9" fill-rule="evenodd" fill-opacity="1"/>
<polyline clip-path="url(#clip072)" style="stroke:#000000; stroke-linecap:round; stroke-linejoin:round; stroke-width:4; stroke-opacity:1; fill:none" points="759.105,1141.6 759.105,1141.6 769.724,1141.6 759.105,1141.6 "/>
<path clip-path="url(#clip072)" d="M769.724 1102.25 L769.724 1141.6 L780.342 1141.6 L780.342 1102.25 L769.724 1102.25 L769.724 1102.25  Z" fill="#009af9" fill-rule="evenodd" fill-opacity="1"/>
<polyline clip-path="url(#clip072)" style="stroke:#000000; stroke-linecap:round; stroke-linejoin:round; stroke-width:4; stroke-opacity:1; fill:none" points="769.724,1102.25 769.724,1141.6 780.342,1141.6 780.342,1102.25 769.724,1102.25 "/>
<path clip-path="url(#clip072)" d="M780.342 1141.6 L780.342 1141.6 L790.96 1141.6 L790.96 1141.6 L780.342 1141.6 L780.342 1141.6  Z" fill="#009af9" fill-rule="evenodd" fill-opacity="1"/>
<polyline clip-path="url(#clip072)" style="stroke:#000000; stroke-linecap:round; stroke-linejoin:round; stroke-width:4; stroke-opacity:1; fill:none" points="780.342,1141.6 780.342,1141.6 790.96,1141.6 780.342,1141.6 "/>
<path clip-path="url(#clip072)" d="M790.96 1102.25 L790.96 1141.6 L801.579 1141.6 L801.579 1102.25 L790.96 1102.25 L790.96 1102.25  Z" fill="#009af9" fill-rule="evenodd" fill-opacity="1"/>
<polyline clip-path="url(#clip072)" style="stroke:#000000; stroke-linecap:round; stroke-linejoin:round; stroke-width:4; stroke-opacity:1; fill:none" points="790.96,1102.25 790.96,1141.6 801.579,1141.6 801.579,1102.25 790.96,1102.25 "/>
<path clip-path="url(#clip072)" d="M801.579 1141.6 L801.579 1141.6 L812.197 1141.6 L812.197 1141.6 L801.579 1141.6 L801.579 1141.6  Z" fill="#009af9" fill-rule="evenodd" fill-opacity="1"/>
<polyline clip-path="url(#clip072)" style="stroke:#000000; stroke-linecap:round; stroke-linejoin:round; stroke-width:4; stroke-opacity:1; fill:none" points="801.579,1141.6 801.579,1141.6 812.197,1141.6 801.579,1141.6 "/>
<path clip-path="url(#clip072)" d="M812.197 1141.6 L812.197 1141.6 L822.815 1141.6 L822.815 1141.6 L812.197 1141.6 L812.197 1141.6  Z" fill="#009af9" fill-rule="evenodd" fill-opacity="1"/>
<polyline clip-path="url(#clip072)" style="stroke:#000000; stroke-linecap:round; stroke-linejoin:round; stroke-width:4; stroke-opacity:1; fill:none" points="812.197,1141.6 812.197,1141.6 822.815,1141.6 812.197,1141.6 "/>
<path clip-path="url(#clip072)" d="M822.815 1141.6 L822.815 1141.6 L833.433 1141.6 L833.433 1141.6 L822.815 1141.6 L822.815 1141.6  Z" fill="#009af9" fill-rule="evenodd" fill-opacity="1"/>
<polyline clip-path="url(#clip072)" style="stroke:#000000; stroke-linecap:round; stroke-linejoin:round; stroke-width:4; stroke-opacity:1; fill:none" points="822.815,1141.6 822.815,1141.6 833.433,1141.6 822.815,1141.6 "/>
<path clip-path="url(#clip072)" d="M833.433 1141.6 L833.433 1141.6 L844.052 1141.6 L844.052 1141.6 L833.433 1141.6 L833.433 1141.6  Z" fill="#009af9" fill-rule="evenodd" fill-opacity="1"/>
<polyline clip-path="url(#clip072)" style="stroke:#000000; stroke-linecap:round; stroke-linejoin:round; stroke-width:4; stroke-opacity:1; fill:none" points="833.433,1141.6 833.433,1141.6 844.052,1141.6 833.433,1141.6 "/>
<path clip-path="url(#clip072)" d="M844.052 1141.6 L844.052 1141.6 L854.67 1141.6 L854.67 1141.6 L844.052 1141.6 L844.052 1141.6  Z" fill="#009af9" fill-rule="evenodd" fill-opacity="1"/>
<polyline clip-path="url(#clip072)" style="stroke:#000000; stroke-linecap:round; stroke-linejoin:round; stroke-width:4; stroke-opacity:1; fill:none" points="844.052,1141.6 844.052,1141.6 854.67,1141.6 844.052,1141.6 "/>
<path clip-path="url(#clip072)" d="M854.67 1102.25 L854.67 1141.6 L865.288 1141.6 L865.288 1102.25 L854.67 1102.25 L854.67 1102.25  Z" fill="#009af9" fill-rule="evenodd" fill-opacity="1"/>
<polyline clip-path="url(#clip072)" style="stroke:#000000; stroke-linecap:round; stroke-linejoin:round; stroke-width:4; stroke-opacity:1; fill:none" points="854.67,1102.25 854.67,1141.6 865.288,1141.6 865.288,1102.25 854.67,1102.25 "/>
<path clip-path="url(#clip072)" d="M865.288 1141.6 L865.288 1141.6 L875.906 1141.6 L875.906 1141.6 L865.288 1141.6 L865.288 1141.6  Z" fill="#009af9" fill-rule="evenodd" fill-opacity="1"/>
<polyline clip-path="url(#clip072)" style="stroke:#000000; stroke-linecap:round; stroke-linejoin:round; stroke-width:4; stroke-opacity:1; fill:none" points="865.288,1141.6 865.288,1141.6 875.906,1141.6 865.288,1141.6 "/>
<path clip-path="url(#clip072)" d="M875.906 1141.6 L875.906 1141.6 L886.525 1141.6 L886.525 1141.6 L875.906 1141.6 L875.906 1141.6  Z" fill="#009af9" fill-rule="evenodd" fill-opacity="1"/>
<polyline clip-path="url(#clip072)" style="stroke:#000000; stroke-linecap:round; stroke-linejoin:round; stroke-width:4; stroke-opacity:1; fill:none" points="875.906,1141.6 875.906,1141.6 886.525,1141.6 875.906,1141.6 "/>
<path clip-path="url(#clip072)" d="M886.525 1141.6 L886.525 1141.6 L897.143 1141.6 L897.143 1141.6 L886.525 1141.6 L886.525 1141.6  Z" fill="#009af9" fill-rule="evenodd" fill-opacity="1"/>
<polyline clip-path="url(#clip072)" style="stroke:#000000; stroke-linecap:round; stroke-linejoin:round; stroke-width:4; stroke-opacity:1; fill:none" points="886.525,1141.6 886.525,1141.6 897.143,1141.6 886.525,1141.6 "/>
<path clip-path="url(#clip072)" d="M897.143 1141.6 L897.143 1141.6 L907.761 1141.6 L907.761 1141.6 L897.143 1141.6 L897.143 1141.6  Z" fill="#009af9" fill-rule="evenodd" fill-opacity="1"/>
<polyline clip-path="url(#clip072)" style="stroke:#000000; stroke-linecap:round; stroke-linejoin:round; stroke-width:4; stroke-opacity:1; fill:none" points="897.143,1141.6 897.143,1141.6 907.761,1141.6 897.143,1141.6 "/>
<path clip-path="url(#clip072)" d="M907.761 1141.6 L907.761 1141.6 L918.38 1141.6 L918.38 1141.6 L907.761 1141.6 L907.761 1141.6  Z" fill="#009af9" fill-rule="evenodd" fill-opacity="1"/>
<polyline clip-path="url(#clip072)" style="stroke:#000000; stroke-linecap:round; stroke-linejoin:round; stroke-width:4; stroke-opacity:1; fill:none" points="907.761,1141.6 907.761,1141.6 918.38,1141.6 907.761,1141.6 "/>
<path clip-path="url(#clip072)" d="M918.38 1102.25 L918.38 1141.6 L928.998 1141.6 L928.998 1102.25 L918.38 1102.25 L918.38 1102.25  Z" fill="#009af9" fill-rule="evenodd" fill-opacity="1"/>
<polyline clip-path="url(#clip072)" style="stroke:#000000; stroke-linecap:round; stroke-linejoin:round; stroke-width:4; stroke-opacity:1; fill:none" points="918.38,1102.25 918.38,1141.6 928.998,1141.6 928.998,1102.25 918.38,1102.25 "/>
<path clip-path="url(#clip072)" d="M928.998 1141.6 L928.998 1141.6 L939.616 1141.6 L939.616 1141.6 L928.998 1141.6 L928.998 1141.6  Z" fill="#009af9" fill-rule="evenodd" fill-opacity="1"/>
<polyline clip-path="url(#clip072)" style="stroke:#000000; stroke-linecap:round; stroke-linejoin:round; stroke-width:4; stroke-opacity:1; fill:none" points="928.998,1141.6 928.998,1141.6 939.616,1141.6 928.998,1141.6 "/>
<path clip-path="url(#clip072)" d="M939.616 1102.25 L939.616 1141.6 L950.234 1141.6 L950.234 1102.25 L939.616 1102.25 L939.616 1102.25  Z" fill="#009af9" fill-rule="evenodd" fill-opacity="1"/>
<polyline clip-path="url(#clip072)" style="stroke:#000000; stroke-linecap:round; stroke-linejoin:round; stroke-width:4; stroke-opacity:1; fill:none" points="939.616,1102.25 939.616,1141.6 950.234,1141.6 950.234,1102.25 939.616,1102.25 "/>
<path clip-path="url(#clip072)" d="M950.234 1102.25 L950.234 1141.6 L960.853 1141.6 L960.853 1102.25 L950.234 1102.25 L950.234 1102.25  Z" fill="#009af9" fill-rule="evenodd" fill-opacity="1"/>
<polyline clip-path="url(#clip072)" style="stroke:#000000; stroke-linecap:round; stroke-linejoin:round; stroke-width:4; stroke-opacity:1; fill:none" points="950.234,1102.25 950.234,1141.6 960.853,1141.6 960.853,1102.25 950.234,1102.25 "/>
<circle clip-path="url(#clip072)" style="fill:#009af9; stroke:none; fill-opacity:0" cx="191.028" cy="787.437" r="2"/>
<circle clip-path="url(#clip072)" style="fill:#009af9; stroke:none; fill-opacity:0" cx="201.646" cy="669.384" r="2"/>
<circle clip-path="url(#clip072)" style="fill:#009af9; stroke:none; fill-opacity:0" cx="212.264" cy="275.874" r="2"/>
<circle clip-path="url(#clip072)" style="fill:#009af9; stroke:none; fill-opacity:0" cx="222.883" cy="79.1184" r="2"/>
<circle clip-path="url(#clip072)" style="fill:#009af9; stroke:none; fill-opacity:0" cx="233.501" cy="866.139" r="2"/>
<circle clip-path="url(#clip072)" style="fill:#009af9; stroke:none; fill-opacity:0" cx="244.119" cy="393.927" r="2"/>
<circle clip-path="url(#clip072)" style="fill:#009af9; stroke:none; fill-opacity:0" cx="254.738" cy="590.682" r="2"/>
<circle clip-path="url(#clip072)" style="fill:#009af9; stroke:none; fill-opacity:0" cx="265.356" cy="787.437" r="2"/>
<circle clip-path="url(#clip072)" style="fill:#009af9; stroke:none; fill-opacity:0" cx="275.974" cy="472.629" r="2"/>
<circle clip-path="url(#clip072)" style="fill:#009af9; stroke:none; fill-opacity:0" cx="286.592" cy="787.437" r="2"/>
<circle clip-path="url(#clip072)" style="fill:#009af9; stroke:none; fill-opacity:0" cx="297.211" cy="944.841" r="2"/>
<circle clip-path="url(#clip072)" style="fill:#009af9; stroke:none; fill-opacity:0" cx="307.829" cy="669.384" r="2"/>
<circle clip-path="url(#clip072)" style="fill:#009af9; stroke:none; fill-opacity:0" cx="318.447" cy="787.437" r="2"/>
<circle clip-path="url(#clip072)" style="fill:#009af9; stroke:none; fill-opacity:0" cx="329.065" cy="787.437" r="2"/>
<circle clip-path="url(#clip072)" style="fill:#009af9; stroke:none; fill-opacity:0" cx="339.684" cy="866.139" r="2"/>
<circle clip-path="url(#clip072)" style="fill:#009af9; stroke:none; fill-opacity:0" cx="350.302" cy="866.139" r="2"/>
<circle clip-path="url(#clip072)" style="fill:#009af9; stroke:none; fill-opacity:0" cx="360.92" cy="905.49" r="2"/>
<circle clip-path="url(#clip072)" style="fill:#009af9; stroke:none; fill-opacity:0" cx="371.539" cy="984.192" r="2"/>
<circle clip-path="url(#clip072)" style="fill:#009af9; stroke:none; fill-opacity:0" cx="382.157" cy="984.192" r="2"/>
<circle clip-path="url(#clip072)" style="fill:#009af9; stroke:none; fill-opacity:0" cx="392.775" cy="984.192" r="2"/>
<circle clip-path="url(#clip072)" style="fill:#009af9; stroke:none; fill-opacity:0" cx="403.393" cy="984.192" r="2"/>
<circle clip-path="url(#clip072)" style="fill:#009af9; stroke:none; fill-opacity:0" cx="414.012" cy="905.49" r="2"/>
<circle clip-path="url(#clip072)" style="fill:#009af9; stroke:none; fill-opacity:0" cx="424.63" cy="944.841" r="2"/>
<circle clip-path="url(#clip072)" style="fill:#009af9; stroke:none; fill-opacity:0" cx="435.248" cy="1062.89" r="2"/>
<circle clip-path="url(#clip072)" style="fill:#009af9; stroke:none; fill-opacity:0" cx="445.866" cy="1102.25" r="2"/>
<circle clip-path="url(#clip072)" style="fill:#009af9; stroke:none; fill-opacity:0" cx="456.485" cy="1062.89" r="2"/>
<circle clip-path="url(#clip072)" style="fill:#009af9; stroke:none; fill-opacity:0" cx="467.103" cy="1062.89" r="2"/>
<circle clip-path="url(#clip072)" style="fill:#009af9; stroke:none; fill-opacity:0" cx="477.721" cy="1062.89" r="2"/>
<circle clip-path="url(#clip072)" style="fill:#009af9; stroke:none; fill-opacity:0" cx="488.34" cy="1102.25" r="2"/>
<circle clip-path="url(#clip072)" style="fill:#009af9; stroke:none; fill-opacity:0" cx="498.958" cy="1102.25" r="2"/>
<circle clip-path="url(#clip072)" style="fill:#009af9; stroke:none; fill-opacity:0" cx="509.576" cy="1023.54" r="2"/>
<circle clip-path="url(#clip072)" style="fill:#009af9; stroke:none; fill-opacity:0" cx="520.194" cy="1062.89" r="2"/>
<circle clip-path="url(#clip072)" style="fill:#009af9; stroke:none; fill-opacity:0" cx="530.813" cy="1141.6" r="2"/>
<circle clip-path="url(#clip072)" style="fill:#009af9; stroke:none; fill-opacity:0" cx="541.431" cy="1023.54" r="2"/>
<circle clip-path="url(#clip072)" style="fill:#009af9; stroke:none; fill-opacity:0" cx="552.049" cy="1102.25" r="2"/>
<circle clip-path="url(#clip072)" style="fill:#009af9; stroke:none; fill-opacity:0" cx="562.667" cy="1102.25" r="2"/>
<circle clip-path="url(#clip072)" style="fill:#009af9; stroke:none; fill-opacity:0" cx="573.286" cy="1062.89" r="2"/>
<circle clip-path="url(#clip072)" style="fill:#009af9; stroke:none; fill-opacity:0" cx="583.904" cy="1141.6" r="2"/>
<circle clip-path="url(#clip072)" style="fill:#009af9; stroke:none; fill-opacity:0" cx="594.522" cy="1023.54" r="2"/>
<circle clip-path="url(#clip072)" style="fill:#009af9; stroke:none; fill-opacity:0" cx="605.141" cy="1023.54" r="2"/>
<circle clip-path="url(#clip072)" style="fill:#009af9; stroke:none; fill-opacity:0" cx="615.759" cy="1141.6" r="2"/>
<circle clip-path="url(#clip072)" style="fill:#009af9; stroke:none; fill-opacity:0" cx="626.377" cy="1141.6" r="2"/>
<circle clip-path="url(#clip072)" style="fill:#009af9; stroke:none; fill-opacity:0" cx="636.995" cy="1102.25" r="2"/>
<circle clip-path="url(#clip072)" style="fill:#009af9; stroke:none; fill-opacity:0" cx="647.614" cy="1141.6" r="2"/>
<circle clip-path="url(#clip072)" style="fill:#009af9; stroke:none; fill-opacity:0" cx="658.232" cy="1102.25" r="2"/>
<circle clip-path="url(#clip072)" style="fill:#009af9; stroke:none; fill-opacity:0" cx="668.85" cy="1062.89" r="2"/>
<circle clip-path="url(#clip072)" style="fill:#009af9; stroke:none; fill-opacity:0" cx="679.468" cy="1102.25" r="2"/>
<circle clip-path="url(#clip072)" style="fill:#009af9; stroke:none; fill-opacity:0" cx="690.087" cy="1141.6" r="2"/>
<circle clip-path="url(#clip072)" style="fill:#009af9; stroke:none; fill-opacity:0" cx="700.705" cy="1102.25" r="2"/>
<circle clip-path="url(#clip072)" style="fill:#009af9; stroke:none; fill-opacity:0" cx="711.323" cy="1102.25" r="2"/>
<circle clip-path="url(#clip072)" style="fill:#009af9; stroke:none; fill-opacity:0" cx="721.942" cy="1141.6" r="2"/>
<circle clip-path="url(#clip072)" style="fill:#009af9; stroke:none; fill-opacity:0" cx="732.56" cy="1141.6" r="2"/>
<circle clip-path="url(#clip072)" style="fill:#009af9; stroke:none; fill-opacity:0" cx="743.178" cy="1102.25" r="2"/>
<circle clip-path="url(#clip072)" style="fill:#009af9; stroke:none; fill-opacity:0" cx="753.796" cy="1102.25" r="2"/>
<circle clip-path="url(#clip072)" style="fill:#009af9; stroke:none; fill-opacity:0" cx="764.415" cy="1141.6" r="2"/>
<circle clip-path="url(#clip072)" style="fill:#009af9; stroke:none; fill-opacity:0" cx="775.033" cy="1102.25" r="2"/>
<circle clip-path="url(#clip072)" style="fill:#009af9; stroke:none; fill-opacity:0" cx="785.651" cy="1141.6" r="2"/>
<circle clip-path="url(#clip072)" style="fill:#009af9; stroke:none; fill-opacity:0" cx="796.269" cy="1102.25" r="2"/>
<circle clip-path="url(#clip072)" style="fill:#009af9; stroke:none; fill-opacity:0" cx="806.888" cy="1141.6" r="2"/>
<circle clip-path="url(#clip072)" style="fill:#009af9; stroke:none; fill-opacity:0" cx="817.506" cy="1141.6" r="2"/>
<circle clip-path="url(#clip072)" style="fill:#009af9; stroke:none; fill-opacity:0" cx="828.124" cy="1141.6" r="2"/>
<circle clip-path="url(#clip072)" style="fill:#009af9; stroke:none; fill-opacity:0" cx="838.743" cy="1141.6" r="2"/>
<circle clip-path="url(#clip072)" style="fill:#009af9; stroke:none; fill-opacity:0" cx="849.361" cy="1141.6" r="2"/>
<circle clip-path="url(#clip072)" style="fill:#009af9; stroke:none; fill-opacity:0" cx="859.979" cy="1102.25" r="2"/>
<circle clip-path="url(#clip072)" style="fill:#009af9; stroke:none; fill-opacity:0" cx="870.597" cy="1141.6" r="2"/>
<circle clip-path="url(#clip072)" style="fill:#009af9; stroke:none; fill-opacity:0" cx="881.216" cy="1141.6" r="2"/>
<circle clip-path="url(#clip072)" style="fill:#009af9; stroke:none; fill-opacity:0" cx="891.834" cy="1141.6" r="2"/>
<circle clip-path="url(#clip072)" style="fill:#009af9; stroke:none; fill-opacity:0" cx="902.452" cy="1141.6" r="2"/>
<circle clip-path="url(#clip072)" style="fill:#009af9; stroke:none; fill-opacity:0" cx="913.07" cy="1141.6" r="2"/>
<circle clip-path="url(#clip072)" style="fill:#009af9; stroke:none; fill-opacity:0" cx="923.689" cy="1102.25" r="2"/>
<circle clip-path="url(#clip072)" style="fill:#009af9; stroke:none; fill-opacity:0" cx="934.307" cy="1141.6" r="2"/>
<circle clip-path="url(#clip072)" style="fill:#009af9; stroke:none; fill-opacity:0" cx="944.925" cy="1102.25" r="2"/>
<circle clip-path="url(#clip072)" style="fill:#009af9; stroke:none; fill-opacity:0" cx="955.543" cy="1102.25" r="2"/>
<path clip-path="url(#clip070)" d="M1193.82 1173.47 L2064.76 1173.47 L2064.76 47.2441 L1193.82 47.2441  Z" fill="#ffffff" fill-rule="evenodd" fill-opacity="1"/>
<defs>
  <clipPath id="clip073">
    <rect x="1193" y="47" width="872" height="1127"/>
  </clipPath>
</defs>
<polyline clip-path="url(#clip073)" style="stroke:#000000; stroke-linecap:round; stroke-linejoin:round; stroke-width:2; stroke-opacity:0.1; fill:none" points="1220.19,1173.47 1220.19,47.2441 "/>
<polyline clip-path="url(#clip073)" style="stroke:#000000; stroke-linecap:round; stroke-linejoin:round; stroke-width:2; stroke-opacity:0.1; fill:none" points="1435.5,1173.47 1435.5,47.2441 "/>
<polyline clip-path="url(#clip073)" style="stroke:#000000; stroke-linecap:round; stroke-linejoin:round; stroke-width:2; stroke-opacity:0.1; fill:none" points="1650.82,1173.47 1650.82,47.2441 "/>
<polyline clip-path="url(#clip073)" style="stroke:#000000; stroke-linecap:round; stroke-linejoin:round; stroke-width:2; stroke-opacity:0.1; fill:none" points="1866.13,1173.47 1866.13,47.2441 "/>
<polyline clip-path="url(#clip070)" style="stroke:#000000; stroke-linecap:round; stroke-linejoin:round; stroke-width:4; stroke-opacity:1; fill:none" points="1193.82,1173.47 2064.76,1173.47 "/>
<polyline clip-path="url(#clip070)" style="stroke:#000000; stroke-linecap:round; stroke-linejoin:round; stroke-width:4; stroke-opacity:1; fill:none" points="1220.19,1173.47 1220.19,1154.57 "/>
<polyline clip-path="url(#clip070)" style="stroke:#000000; stroke-linecap:round; stroke-linejoin:round; stroke-width:4; stroke-opacity:1; fill:none" points="1435.5,1173.47 1435.5,1154.57 "/>
<polyline clip-path="url(#clip070)" style="stroke:#000000; stroke-linecap:round; stroke-linejoin:round; stroke-width:4; stroke-opacity:1; fill:none" points="1650.82,1173.47 1650.82,1154.57 "/>
<polyline clip-path="url(#clip070)" style="stroke:#000000; stroke-linecap:round; stroke-linejoin:round; stroke-width:4; stroke-opacity:1; fill:none" points="1866.13,1173.47 1866.13,1154.57 "/>
<path clip-path="url(#clip070)" d="M1198.37 1202.09 Q1194.76 1202.09 1192.93 1205.65 Q1191.12 1209.19 1191.12 1216.32 Q1191.12 1223.43 1192.93 1226.99 Q1194.76 1230.53 1198.37 1230.53 Q1202 1230.53 1203.81 1226.99 Q1205.64 1223.43 1205.64 1216.32 Q1205.64 1209.19 1203.81 1205.65 Q1202 1202.09 1198.37 1202.09 M1198.37 1198.38 Q1204.18 1198.38 1207.24 1202.99 Q1210.31 1207.57 1210.31 1216.32 Q1210.31 1225.05 1207.24 1229.65 Q1204.18 1234.24 1198.37 1234.24 Q1192.56 1234.24 1189.48 1229.65 Q1186.43 1225.05 1186.43 1216.32 Q1186.43 1207.57 1189.48 1202.99 Q1192.56 1198.38 1198.37 1198.38 Z" fill="#000000" fill-rule="nonzero" fill-opacity="1" /><path clip-path="url(#clip070)" d="M1218.53 1227.69 L1223.42 1227.69 L1223.42 1233.57 L1218.53 1233.57 L1218.53 1227.69 Z" fill="#000000" fill-rule="nonzero" fill-opacity="1" /><path clip-path="url(#clip070)" d="M1237.63 1229.63 L1253.95 1229.63 L1253.95 1233.57 L1232 1233.57 L1232 1229.63 Q1234.67 1226.88 1239.25 1222.25 Q1243.86 1217.59 1245.04 1216.25 Q1247.28 1213.73 1248.16 1211.99 Q1249.06 1210.23 1249.06 1208.54 Q1249.06 1205.79 1247.12 1204.05 Q1245.2 1202.32 1242.1 1202.32 Q1239.9 1202.32 1237.44 1203.08 Q1235.01 1203.84 1232.24 1205.4 L1232.24 1200.67 Q1235.06 1199.54 1237.51 1198.96 Q1239.97 1198.38 1242 1198.38 Q1247.37 1198.38 1250.57 1201.07 Q1253.76 1203.75 1253.76 1208.24 Q1253.76 1210.37 1252.95 1212.29 Q1252.17 1214.19 1250.06 1216.78 Q1249.48 1217.46 1246.38 1220.67 Q1243.28 1223.87 1237.63 1229.63 Z" fill="#000000" fill-rule="nonzero" fill-opacity="1" /><path clip-path="url(#clip070)" d="M1412.64 1202.09 Q1409.03 1202.09 1407.2 1205.65 Q1405.4 1209.19 1405.4 1216.32 Q1405.4 1223.43 1407.2 1226.99 Q1409.03 1230.53 1412.64 1230.53 Q1416.28 1230.53 1418.08 1226.99 Q1419.91 1223.43 1419.91 1216.32 Q1419.91 1209.19 1418.08 1205.65 Q1416.28 1202.09 1412.64 1202.09 M1412.64 1198.38 Q1418.45 1198.38 1421.51 1202.99 Q1424.59 1207.57 1424.59 1216.32 Q1424.59 1225.05 1421.51 1229.65 Q1418.45 1234.24 1412.64 1234.24 Q1406.83 1234.24 1403.75 1229.65 Q1400.7 1225.05 1400.7 1216.32 Q1400.7 1207.57 1403.75 1202.99 Q1406.83 1198.38 1412.64 1198.38 Z" fill="#000000" fill-rule="nonzero" fill-opacity="1" /><path clip-path="url(#clip070)" d="M1432.81 1227.69 L1437.69 1227.69 L1437.69 1233.57 L1432.81 1233.57 L1432.81 1227.69 Z" fill="#000000" fill-rule="nonzero" fill-opacity="1" /><path clip-path="url(#clip070)" d="M1460.72 1203.08 L1448.92 1221.53 L1460.72 1221.53 L1460.72 1203.08 M1459.5 1199.01 L1465.37 1199.01 L1465.37 1221.53 L1470.31 1221.53 L1470.31 1225.42 L1465.37 1225.42 L1465.37 1233.57 L1460.72 1233.57 L1460.72 1225.42 L1445.12 1225.42 L1445.12 1220.9 L1459.5 1199.01 Z" fill="#000000" fill-rule="nonzero" fill-opacity="1" /><path clip-path="url(#clip070)" d="M1628.12 1202.09 Q1624.51 1202.09 1622.68 1205.65 Q1620.88 1209.19 1620.88 1216.32 Q1620.88 1223.43 1622.68 1226.99 Q1624.51 1230.53 1628.12 1230.53 Q1631.75 1230.53 1633.56 1226.99 Q1635.39 1223.43 1635.39 1216.32 Q1635.39 1209.19 1633.56 1205.65 Q1631.75 1202.09 1628.12 1202.09 M1628.12 1198.38 Q1633.93 1198.38 1636.99 1202.99 Q1640.06 1207.57 1640.06 1216.32 Q1640.06 1225.05 1636.99 1229.65 Q1633.93 1234.24 1628.12 1234.24 Q1622.31 1234.24 1619.23 1229.65 Q1616.18 1225.05 1616.18 1216.32 Q1616.18 1207.57 1619.23 1202.99 Q1622.31 1198.38 1628.12 1198.38 Z" fill="#000000" fill-rule="nonzero" fill-opacity="1" /><path clip-path="url(#clip070)" d="M1648.28 1227.69 L1653.17 1227.69 L1653.17 1233.57 L1648.28 1233.57 L1648.28 1227.69 Z" fill="#000000" fill-rule="nonzero" fill-opacity="1" /><path clip-path="url(#clip070)" d="M1673.93 1214.42 Q1670.78 1214.42 1668.93 1216.58 Q1667.1 1218.73 1667.1 1222.48 Q1667.1 1226.21 1668.93 1228.38 Q1670.78 1230.53 1673.93 1230.53 Q1677.08 1230.53 1678.91 1228.38 Q1680.76 1226.21 1680.76 1222.48 Q1680.76 1218.73 1678.91 1216.58 Q1677.08 1214.42 1673.93 1214.42 M1683.21 1199.77 L1683.21 1204.03 Q1681.45 1203.2 1679.65 1202.76 Q1677.87 1202.32 1676.11 1202.32 Q1671.48 1202.32 1669.02 1205.44 Q1666.59 1208.57 1666.25 1214.89 Q1667.61 1212.87 1669.67 1211.81 Q1671.73 1210.72 1674.21 1210.72 Q1679.42 1210.72 1682.43 1213.89 Q1685.46 1217.04 1685.46 1222.48 Q1685.46 1227.8 1682.31 1231.02 Q1679.16 1234.24 1673.93 1234.24 Q1667.94 1234.24 1664.76 1229.65 Q1661.59 1225.05 1661.59 1216.32 Q1661.59 1208.13 1665.48 1203.27 Q1669.37 1198.38 1675.92 1198.38 Q1677.68 1198.38 1679.46 1198.73 Q1681.27 1199.08 1683.21 1199.77 Z" fill="#000000" fill-rule="nonzero" fill-opacity="1" /><path clip-path="url(#clip070)" d="M1843.56 1202.09 Q1839.95 1202.09 1838.12 1205.65 Q1836.32 1209.19 1836.32 1216.32 Q1836.32 1223.43 1838.12 1226.99 Q1839.95 1230.53 1843.56 1230.53 Q1847.2 1230.53 1849 1226.99 Q1850.83 1223.43 1850.83 1216.32 Q1850.83 1209.19 1849 1205.65 Q1847.2 1202.09 1843.56 1202.09 M1843.56 1198.38 Q1849.37 1198.38 1852.43 1202.99 Q1855.51 1207.57 1855.51 1216.32 Q1855.51 1225.05 1852.43 1229.65 Q1849.37 1234.24 1843.56 1234.24 Q1837.75 1234.24 1834.67 1229.65 Q1831.62 1225.05 1831.62 1216.32 Q1831.62 1207.57 1834.67 1202.99 Q1837.75 1198.38 1843.56 1198.38 Z" fill="#000000" fill-rule="nonzero" fill-opacity="1" /><path clip-path="url(#clip070)" d="M1863.72 1227.69 L1868.61 1227.69 L1868.61 1233.57 L1863.72 1233.57 L1863.72 1227.69 Z" fill="#000000" fill-rule="nonzero" fill-opacity="1" /><path clip-path="url(#clip070)" d="M1888.79 1217.15 Q1885.46 1217.15 1883.54 1218.94 Q1881.64 1220.72 1881.64 1223.84 Q1881.64 1226.97 1883.54 1228.75 Q1885.46 1230.53 1888.79 1230.53 Q1892.13 1230.53 1894.05 1228.75 Q1895.97 1226.95 1895.97 1223.84 Q1895.97 1220.72 1894.05 1218.94 Q1892.15 1217.15 1888.79 1217.15 M1884.12 1215.16 Q1881.11 1214.42 1879.42 1212.36 Q1877.75 1210.3 1877.75 1207.34 Q1877.75 1203.2 1880.69 1200.79 Q1883.66 1198.38 1888.79 1198.38 Q1893.96 1198.38 1896.9 1200.79 Q1899.84 1203.2 1899.84 1207.34 Q1899.84 1210.3 1898.15 1212.36 Q1896.48 1214.42 1893.49 1215.16 Q1896.87 1215.95 1898.75 1218.24 Q1900.65 1220.53 1900.65 1223.84 Q1900.65 1228.87 1897.57 1231.55 Q1894.51 1234.24 1888.79 1234.24 Q1883.08 1234.24 1880 1231.55 Q1876.94 1228.87 1876.94 1223.84 Q1876.94 1220.53 1878.84 1218.24 Q1880.74 1215.95 1884.12 1215.16 M1882.41 1207.78 Q1882.41 1210.47 1884.07 1211.97 Q1885.76 1213.47 1888.79 1213.47 Q1891.8 1213.47 1893.49 1211.97 Q1895.21 1210.47 1895.21 1207.78 Q1895.21 1205.09 1893.49 1203.59 Q1891.8 1202.09 1888.79 1202.09 Q1885.76 1202.09 1884.07 1203.59 Q1882.41 1205.09 1882.41 1207.78 Z" fill="#000000" fill-rule="nonzero" fill-opacity="1" /><path clip-path="url(#clip070)" d="M1596.14 1291.32 L1596.14 1308.73 L1606.45 1308.73 Q1611.64 1308.73 1614.12 1306.6 Q1616.63 1304.43 1616.63 1300.01 Q1616.63 1295.55 1614.12 1293.45 Q1611.64 1291.32 1606.45 1291.32 L1596.14 1291.32 M1596.14 1271.78 L1596.14 1286.1 L1605.65 1286.1 Q1610.36 1286.1 1612.66 1284.35 Q1614.98 1282.57 1614.98 1278.94 Q1614.98 1275.34 1612.66 1273.56 Q1610.36 1271.78 1605.65 1271.78 L1596.14 1271.78 M1589.71 1266.49 L1606.13 1266.49 Q1613.48 1266.49 1617.46 1269.55 Q1621.44 1272.61 1621.44 1278.24 Q1621.44 1282.6 1619.4 1285.18 Q1617.37 1287.76 1613.42 1288.39 Q1618.16 1289.41 1620.77 1292.66 Q1623.41 1295.87 1623.41 1300.71 Q1623.41 1307.08 1619.08 1310.55 Q1614.76 1314.01 1606.77 1314.01 L1589.71 1314.01 L1589.71 1266.49 Z" fill="#000000" fill-rule="nonzero" fill-opacity="1" /><path clip-path="url(#clip070)" d="M1668.86 1270.16 L1668.86 1276.93 Q1665.62 1273.91 1661.93 1272.41 Q1658.27 1270.92 1654.13 1270.92 Q1645.98 1270.92 1641.65 1275.92 Q1637.32 1280.88 1637.32 1290.3 Q1637.32 1299.69 1641.65 1304.69 Q1645.98 1309.65 1654.13 1309.65 Q1658.27 1309.65 1661.93 1308.16 Q1665.62 1306.66 1668.86 1303.64 L1668.86 1310.35 Q1665.49 1312.65 1661.7 1313.79 Q1657.95 1314.94 1653.75 1314.94 Q1642.96 1314.94 1636.75 1308.35 Q1630.54 1301.73 1630.54 1290.3 Q1630.54 1278.84 1636.75 1272.26 Q1642.96 1265.64 1653.75 1265.64 Q1658.01 1265.64 1661.77 1266.78 Q1665.55 1267.9 1668.86 1270.16 Z" fill="#000000" fill-rule="nonzero" fill-opacity="1" /><polyline clip-path="url(#clip073)" style="stroke:#000000; stroke-linecap:round; stroke-linejoin:round; stroke-width:2; stroke-opacity:0.1; fill:none" points="1193.82,1141.6 2064.76,1141.6 "/>
<polyline clip-path="url(#clip073)" style="stroke:#000000; stroke-linecap:round; stroke-linejoin:round; stroke-width:2; stroke-opacity:0.1; fill:none" points="1193.82,798.862 2064.76,798.862 "/>
<polyline clip-path="url(#clip073)" style="stroke:#000000; stroke-linecap:round; stroke-linejoin:round; stroke-width:2; stroke-opacity:0.1; fill:none" points="1193.82,456.127 2064.76,456.127 "/>
<polyline clip-path="url(#clip073)" style="stroke:#000000; stroke-linecap:round; stroke-linejoin:round; stroke-width:2; stroke-opacity:0.1; fill:none" points="1193.82,113.392 2064.76,113.392 "/>
<polyline clip-path="url(#clip070)" style="stroke:#000000; stroke-linecap:round; stroke-linejoin:round; stroke-width:4; stroke-opacity:1; fill:none" points="1193.82,1173.47 1193.82,47.2441 "/>
<polyline clip-path="url(#clip070)" style="stroke:#000000; stroke-linecap:round; stroke-linejoin:round; stroke-width:4; stroke-opacity:1; fill:none" points="1193.82,1141.6 1212.71,1141.6 "/>
<polyline clip-path="url(#clip070)" style="stroke:#000000; stroke-linecap:round; stroke-linejoin:round; stroke-width:4; stroke-opacity:1; fill:none" points="1193.82,798.862 1212.71,798.862 "/>
<polyline clip-path="url(#clip070)" style="stroke:#000000; stroke-linecap:round; stroke-linejoin:round; stroke-width:4; stroke-opacity:1; fill:none" points="1193.82,456.127 1212.71,456.127 "/>
<polyline clip-path="url(#clip070)" style="stroke:#000000; stroke-linecap:round; stroke-linejoin:round; stroke-width:4; stroke-opacity:1; fill:none" points="1193.82,113.392 1212.71,113.392 "/>
<path clip-path="url(#clip070)" d="M1150.19 1127.4 Q1146.58 1127.4 1144.75 1130.96 Q1142.95 1134.5 1142.95 1141.63 Q1142.95 1148.74 1144.75 1152.3 Q1146.58 1155.84 1150.19 1155.84 Q1153.83 1155.84 1155.63 1152.3 Q1157.46 1148.74 1157.46 1141.63 Q1157.46 1134.5 1155.63 1130.96 Q1153.83 1127.4 1150.19 1127.4 M1150.19 1123.69 Q1156 1123.69 1159.06 1128.3 Q1162.14 1132.88 1162.14 1141.63 Q1162.14 1150.36 1159.06 1154.96 Q1156 1159.55 1150.19 1159.55 Q1144.38 1159.55 1141.3 1154.96 Q1138.25 1150.36 1138.25 1141.63 Q1138.25 1132.88 1141.3 1128.3 Q1144.38 1123.69 1150.19 1123.69 Z" fill="#000000" fill-rule="nonzero" fill-opacity="1" /><path clip-path="url(#clip070)" d="M1110.84 812.206 L1118.48 812.206 L1118.48 785.841 L1110.17 787.507 L1110.17 783.248 L1118.43 781.582 L1123.11 781.582 L1123.11 812.206 L1130.75 812.206 L1130.75 816.142 L1110.84 816.142 L1110.84 812.206 Z" fill="#000000" fill-rule="nonzero" fill-opacity="1" /><path clip-path="url(#clip070)" d="M1150.19 784.66 Q1146.58 784.66 1144.75 788.225 Q1142.95 791.767 1142.95 798.896 Q1142.95 806.003 1144.75 809.568 Q1146.58 813.109 1150.19 813.109 Q1153.83 813.109 1155.63 809.568 Q1157.46 806.003 1157.46 798.896 Q1157.46 791.767 1155.63 788.225 Q1153.83 784.66 1150.19 784.66 M1150.19 780.957 Q1156 780.957 1159.06 785.563 Q1162.14 790.146 1162.14 798.896 Q1162.14 807.623 1159.06 812.23 Q1156 816.813 1150.19 816.813 Q1144.38 816.813 1141.3 812.23 Q1138.25 807.623 1138.25 798.896 Q1138.25 790.146 1141.3 785.563 Q1144.38 780.957 1150.19 780.957 Z" fill="#000000" fill-rule="nonzero" fill-opacity="1" /><path clip-path="url(#clip070)" d="M1114.06 469.472 L1130.38 469.472 L1130.38 473.407 L1108.43 473.407 L1108.43 469.472 Q1111.09 466.717 1115.68 462.087 Q1120.28 457.435 1121.46 456.092 Q1123.71 453.569 1124.59 451.833 Q1125.49 450.074 1125.49 448.384 Q1125.49 445.629 1123.55 443.893 Q1121.63 442.157 1118.52 442.157 Q1116.33 442.157 1113.87 442.921 Q1111.44 443.685 1108.66 445.236 L1108.66 440.513 Q1111.49 439.379 1113.94 438.8 Q1116.4 438.222 1118.43 438.222 Q1123.8 438.222 1127 440.907 Q1130.19 443.592 1130.19 448.083 Q1130.19 450.212 1129.38 452.134 Q1128.59 454.032 1126.49 456.624 Q1125.91 457.296 1122.81 460.513 Q1119.71 463.708 1114.06 469.472 Z" fill="#000000" fill-rule="nonzero" fill-opacity="1" /><path clip-path="url(#clip070)" d="M1150.19 441.925 Q1146.58 441.925 1144.75 445.49 Q1142.95 449.032 1142.95 456.161 Q1142.95 463.268 1144.75 466.833 Q1146.58 470.374 1150.19 470.374 Q1153.83 470.374 1155.63 466.833 Q1157.46 463.268 1157.46 456.161 Q1157.46 449.032 1155.63 445.49 Q1153.83 441.925 1150.19 441.925 M1150.19 438.222 Q1156 438.222 1159.06 442.828 Q1162.14 447.412 1162.14 456.161 Q1162.14 464.888 1159.06 469.495 Q1156 474.078 1150.19 474.078 Q1144.38 474.078 1141.3 469.495 Q1138.25 464.888 1138.25 456.161 Q1138.25 447.412 1141.3 442.828 Q1144.38 438.222 1150.19 438.222 Z" fill="#000000" fill-rule="nonzero" fill-opacity="1" /><path clip-path="url(#clip070)" d="M1124.2 112.038 Q1127.55 112.755 1129.43 115.024 Q1131.33 117.292 1131.33 120.626 Q1131.33 125.741 1127.81 128.542 Q1124.29 131.343 1117.81 131.343 Q1115.63 131.343 1113.32 130.903 Q1111.02 130.487 1108.57 129.63 L1108.57 125.116 Q1110.52 126.251 1112.83 126.829 Q1115.15 127.408 1117.67 127.408 Q1122.07 127.408 1124.36 125.672 Q1126.67 123.936 1126.67 120.626 Q1126.67 117.57 1124.52 115.857 Q1122.39 114.121 1118.57 114.121 L1114.54 114.121 L1114.54 110.279 L1118.76 110.279 Q1122.21 110.279 1124.03 108.913 Q1125.86 107.524 1125.86 104.931 Q1125.86 102.269 1123.96 100.857 Q1122.09 99.4221 1118.57 99.4221 Q1116.65 99.4221 1114.45 99.8387 Q1112.25 100.255 1109.61 101.135 L1109.61 96.9684 Q1112.27 96.2277 1114.59 95.8573 Q1116.93 95.4869 1118.99 95.4869 Q1124.31 95.4869 1127.41 97.9175 Q1130.52 100.325 1130.52 104.445 Q1130.52 107.316 1128.87 109.306 Q1127.23 111.274 1124.2 112.038 Z" fill="#000000" fill-rule="nonzero" fill-opacity="1" /><path clip-path="url(#clip070)" d="M1150.19 99.1906 Q1146.58 99.1906 1144.75 102.755 Q1142.95 106.297 1142.95 113.427 Q1142.95 120.533 1144.75 124.098 Q1146.58 127.64 1150.19 127.64 Q1153.83 127.64 1155.63 124.098 Q1157.46 120.533 1157.46 113.427 Q1157.46 106.297 1155.63 102.755 Q1153.83 99.1906 1150.19 99.1906 M1150.19 95.4869 Q1156 95.4869 1159.06 100.093 Q1162.14 104.677 1162.14 113.427 Q1162.14 122.153 1159.06 126.76 Q1156 131.343 1150.19 131.343 Q1144.38 131.343 1141.3 126.76 Q1138.25 122.153 1138.25 113.427 Q1138.25 104.677 1141.3 100.093 Q1144.38 95.4869 1150.19 95.4869 Z" fill="#000000" fill-rule="nonzero" fill-opacity="1" /><path clip-path="url(#clip073)" d="M1241.72 1073.05 L1241.72 1141.6 L1263.25 1141.6 L1263.25 1073.05 L1241.72 1073.05 L1241.72 1073.05  Z" fill="#009af9" fill-rule="evenodd" fill-opacity="1"/>
<polyline clip-path="url(#clip073)" style="stroke:#000000; stroke-linecap:round; stroke-linejoin:round; stroke-width:4; stroke-opacity:1; fill:none" points="1241.72,1073.05 1241.72,1141.6 1263.25,1141.6 1263.25,1073.05 1241.72,1073.05 "/>
<path clip-path="url(#clip073)" d="M1263.25 1107.32 L1263.25 1141.6 L1284.78 1141.6 L1284.78 1107.32 L1263.25 1107.32 L1263.25 1107.32  Z" fill="#009af9" fill-rule="evenodd" fill-opacity="1"/>
<polyline clip-path="url(#clip073)" style="stroke:#000000; stroke-linecap:round; stroke-linejoin:round; stroke-width:4; stroke-opacity:1; fill:none" points="1263.25,1107.32 1263.25,1141.6 1284.78,1141.6 1284.78,1107.32 1263.25,1107.32 "/>
<path clip-path="url(#clip073)" d="M1284.78 1107.32 L1284.78 1141.6 L1306.31 1141.6 L1306.31 1107.32 L1284.78 1107.32 L1284.78 1107.32  Z" fill="#009af9" fill-rule="evenodd" fill-opacity="1"/>
<polyline clip-path="url(#clip073)" style="stroke:#000000; stroke-linecap:round; stroke-linejoin:round; stroke-width:4; stroke-opacity:1; fill:none" points="1284.78,1107.32 1284.78,1141.6 1306.31,1141.6 1306.31,1107.32 1284.78,1107.32 "/>
<path clip-path="url(#clip073)" d="M1306.31 1141.6 L1306.31 1141.6 L1327.84 1141.6 L1327.84 1141.6 L1306.31 1141.6 L1306.31 1141.6  Z" fill="#009af9" fill-rule="evenodd" fill-opacity="1"/>
<polyline clip-path="url(#clip073)" style="stroke:#000000; stroke-linecap:round; stroke-linejoin:round; stroke-width:4; stroke-opacity:1; fill:none" points="1306.31,1141.6 1306.31,1141.6 1327.84,1141.6 1306.31,1141.6 "/>
<path clip-path="url(#clip073)" d="M1327.84 1073.05 L1327.84 1141.6 L1349.38 1141.6 L1349.38 1073.05 L1327.84 1073.05 L1327.84 1073.05  Z" fill="#009af9" fill-rule="evenodd" fill-opacity="1"/>
<polyline clip-path="url(#clip073)" style="stroke:#000000; stroke-linecap:round; stroke-linejoin:round; stroke-width:4; stroke-opacity:1; fill:none" points="1327.84,1073.05 1327.84,1141.6 1349.38,1141.6 1349.38,1073.05 1327.84,1073.05 "/>
<path clip-path="url(#clip073)" d="M1349.38 1073.05 L1349.38 1141.6 L1370.91 1141.6 L1370.91 1073.05 L1349.38 1073.05 L1349.38 1073.05  Z" fill="#009af9" fill-rule="evenodd" fill-opacity="1"/>
<polyline clip-path="url(#clip073)" style="stroke:#000000; stroke-linecap:round; stroke-linejoin:round; stroke-width:4; stroke-opacity:1; fill:none" points="1349.38,1073.05 1349.38,1141.6 1370.91,1141.6 1370.91,1073.05 1349.38,1073.05 "/>
<path clip-path="url(#clip073)" d="M1370.91 1107.32 L1370.91 1141.6 L1392.44 1141.6 L1392.44 1107.32 L1370.91 1107.32 L1370.91 1107.32  Z" fill="#009af9" fill-rule="evenodd" fill-opacity="1"/>
<polyline clip-path="url(#clip073)" style="stroke:#000000; stroke-linecap:round; stroke-linejoin:round; stroke-width:4; stroke-opacity:1; fill:none" points="1370.91,1107.32 1370.91,1141.6 1392.44,1141.6 1392.44,1107.32 1370.91,1107.32 "/>
<path clip-path="url(#clip073)" d="M1392.44 1107.32 L1392.44 1141.6 L1413.97 1141.6 L1413.97 1107.32 L1392.44 1107.32 L1392.44 1107.32  Z" fill="#009af9" fill-rule="evenodd" fill-opacity="1"/>
<polyline clip-path="url(#clip073)" style="stroke:#000000; stroke-linecap:round; stroke-linejoin:round; stroke-width:4; stroke-opacity:1; fill:none" points="1392.44,1107.32 1392.44,1141.6 1413.97,1141.6 1413.97,1107.32 1392.44,1107.32 "/>
<path clip-path="url(#clip073)" d="M1413.97 1004.5 L1413.97 1141.6 L1435.5 1141.6 L1435.5 1004.5 L1413.97 1004.5 L1413.97 1004.5  Z" fill="#009af9" fill-rule="evenodd" fill-opacity="1"/>
<polyline clip-path="url(#clip073)" style="stroke:#000000; stroke-linecap:round; stroke-linejoin:round; stroke-width:4; stroke-opacity:1; fill:none" points="1413.97,1004.5 1413.97,1141.6 1435.5,1141.6 1435.5,1004.5 1413.97,1004.5 "/>
<path clip-path="url(#clip073)" d="M1435.5 1107.32 L1435.5 1141.6 L1457.03 1141.6 L1457.03 1107.32 L1435.5 1107.32 L1435.5 1107.32  Z" fill="#009af9" fill-rule="evenodd" fill-opacity="1"/>
<polyline clip-path="url(#clip073)" style="stroke:#000000; stroke-linecap:round; stroke-linejoin:round; stroke-width:4; stroke-opacity:1; fill:none" points="1435.5,1107.32 1435.5,1141.6 1457.03,1141.6 1457.03,1107.32 1435.5,1107.32 "/>
<path clip-path="url(#clip073)" d="M1457.03 1038.78 L1457.03 1141.6 L1478.57 1141.6 L1478.57 1038.78 L1457.03 1038.78 L1457.03 1038.78  Z" fill="#009af9" fill-rule="evenodd" fill-opacity="1"/>
<polyline clip-path="url(#clip073)" style="stroke:#000000; stroke-linecap:round; stroke-linejoin:round; stroke-width:4; stroke-opacity:1; fill:none" points="1457.03,1038.78 1457.03,1141.6 1478.57,1141.6 1478.57,1038.78 1457.03,1038.78 "/>
<path clip-path="url(#clip073)" d="M1478.57 1038.78 L1478.57 1141.6 L1500.1 1141.6 L1500.1 1038.78 L1478.57 1038.78 L1478.57 1038.78  Z" fill="#009af9" fill-rule="evenodd" fill-opacity="1"/>
<polyline clip-path="url(#clip073)" style="stroke:#000000; stroke-linecap:round; stroke-linejoin:round; stroke-width:4; stroke-opacity:1; fill:none" points="1478.57,1038.78 1478.57,1141.6 1500.1,1141.6 1500.1,1038.78 1478.57,1038.78 "/>
<path clip-path="url(#clip073)" d="M1500.1 1038.78 L1500.1 1141.6 L1521.63 1141.6 L1521.63 1038.78 L1500.1 1038.78 L1500.1 1038.78  Z" fill="#009af9" fill-rule="evenodd" fill-opacity="1"/>
<polyline clip-path="url(#clip073)" style="stroke:#000000; stroke-linecap:round; stroke-linejoin:round; stroke-width:4; stroke-opacity:1; fill:none" points="1500.1,1038.78 1500.1,1141.6 1521.63,1141.6 1521.63,1038.78 1500.1,1038.78 "/>
<path clip-path="url(#clip073)" d="M1521.63 1004.5 L1521.63 1141.6 L1543.16 1141.6 L1543.16 1004.5 L1521.63 1004.5 L1521.63 1004.5  Z" fill="#009af9" fill-rule="evenodd" fill-opacity="1"/>
<polyline clip-path="url(#clip073)" style="stroke:#000000; stroke-linecap:round; stroke-linejoin:round; stroke-width:4; stroke-opacity:1; fill:none" points="1521.63,1004.5 1521.63,1141.6 1543.16,1141.6 1543.16,1004.5 1521.63,1004.5 "/>
<path clip-path="url(#clip073)" d="M1543.16 1073.05 L1543.16 1141.6 L1564.69 1141.6 L1564.69 1073.05 L1543.16 1073.05 L1543.16 1073.05  Z" fill="#009af9" fill-rule="evenodd" fill-opacity="1"/>
<polyline clip-path="url(#clip073)" style="stroke:#000000; stroke-linecap:round; stroke-linejoin:round; stroke-width:4; stroke-opacity:1; fill:none" points="1543.16,1073.05 1543.16,1141.6 1564.69,1141.6 1564.69,1073.05 1543.16,1073.05 "/>
<path clip-path="url(#clip073)" d="M1564.69 970.229 L1564.69 1141.6 L1586.22 1141.6 L1586.22 970.229 L1564.69 970.229 L1564.69 970.229  Z" fill="#009af9" fill-rule="evenodd" fill-opacity="1"/>
<polyline clip-path="url(#clip073)" style="stroke:#000000; stroke-linecap:round; stroke-linejoin:round; stroke-width:4; stroke-opacity:1; fill:none" points="1564.69,970.229 1564.69,1141.6 1586.22,1141.6 1586.22,970.229 1564.69,970.229 "/>
<path clip-path="url(#clip073)" d="M1586.22 1073.05 L1586.22 1141.6 L1607.75 1141.6 L1607.75 1073.05 L1586.22 1073.05 L1586.22 1073.05  Z" fill="#009af9" fill-rule="evenodd" fill-opacity="1"/>
<polyline clip-path="url(#clip073)" style="stroke:#000000; stroke-linecap:round; stroke-linejoin:round; stroke-width:4; stroke-opacity:1; fill:none" points="1586.22,1073.05 1586.22,1141.6 1607.75,1141.6 1607.75,1073.05 1586.22,1073.05 "/>
<path clip-path="url(#clip073)" d="M1607.75 1004.5 L1607.75 1141.6 L1629.29 1141.6 L1629.29 1004.5 L1607.75 1004.5 L1607.75 1004.5  Z" fill="#009af9" fill-rule="evenodd" fill-opacity="1"/>
<polyline clip-path="url(#clip073)" style="stroke:#000000; stroke-linecap:round; stroke-linejoin:round; stroke-width:4; stroke-opacity:1; fill:none" points="1607.75,1004.5 1607.75,1141.6 1629.29,1141.6 1629.29,1004.5 1607.75,1004.5 "/>
<path clip-path="url(#clip073)" d="M1629.29 1073.05 L1629.29 1141.6 L1650.82 1141.6 L1650.82 1073.05 L1629.29 1073.05 L1629.29 1073.05  Z" fill="#009af9" fill-rule="evenodd" fill-opacity="1"/>
<polyline clip-path="url(#clip073)" style="stroke:#000000; stroke-linecap:round; stroke-linejoin:round; stroke-width:4; stroke-opacity:1; fill:none" points="1629.29,1073.05 1629.29,1141.6 1650.82,1141.6 1650.82,1073.05 1629.29,1073.05 "/>
<path clip-path="url(#clip073)" d="M1650.82 867.409 L1650.82 1141.6 L1672.35 1141.6 L1672.35 867.409 L1650.82 867.409 L1650.82 867.409  Z" fill="#009af9" fill-rule="evenodd" fill-opacity="1"/>
<polyline clip-path="url(#clip073)" style="stroke:#000000; stroke-linecap:round; stroke-linejoin:round; stroke-width:4; stroke-opacity:1; fill:none" points="1650.82,867.409 1650.82,1141.6 1672.35,1141.6 1672.35,867.409 1650.82,867.409 "/>
<path clip-path="url(#clip073)" d="M1672.35 867.409 L1672.35 1141.6 L1693.88 1141.6 L1693.88 867.409 L1672.35 867.409 L1672.35 867.409  Z" fill="#009af9" fill-rule="evenodd" fill-opacity="1"/>
<polyline clip-path="url(#clip073)" style="stroke:#000000; stroke-linecap:round; stroke-linejoin:round; stroke-width:4; stroke-opacity:1; fill:none" points="1672.35,867.409 1672.35,1141.6 1693.88,1141.6 1693.88,867.409 1672.35,867.409 "/>
<path clip-path="url(#clip073)" d="M1693.88 935.956 L1693.88 1141.6 L1715.41 1141.6 L1715.41 935.956 L1693.88 935.956 L1693.88 935.956  Z" fill="#009af9" fill-rule="evenodd" fill-opacity="1"/>
<polyline clip-path="url(#clip073)" style="stroke:#000000; stroke-linecap:round; stroke-linejoin:round; stroke-width:4; stroke-opacity:1; fill:none" points="1693.88,935.956 1693.88,1141.6 1715.41,1141.6 1715.41,935.956 1693.88,935.956 "/>
<path clip-path="url(#clip073)" d="M1715.41 935.956 L1715.41 1141.6 L1736.94 1141.6 L1736.94 935.956 L1715.41 935.956 L1715.41 935.956  Z" fill="#009af9" fill-rule="evenodd" fill-opacity="1"/>
<polyline clip-path="url(#clip073)" style="stroke:#000000; stroke-linecap:round; stroke-linejoin:round; stroke-width:4; stroke-opacity:1; fill:none" points="1715.41,935.956 1715.41,1141.6 1736.94,1141.6 1736.94,935.956 1715.41,935.956 "/>
<path clip-path="url(#clip073)" d="M1736.94 833.135 L1736.94 1141.6 L1758.47 1141.6 L1758.47 833.135 L1736.94 833.135 L1736.94 833.135  Z" fill="#009af9" fill-rule="evenodd" fill-opacity="1"/>
<polyline clip-path="url(#clip073)" style="stroke:#000000; stroke-linecap:round; stroke-linejoin:round; stroke-width:4; stroke-opacity:1; fill:none" points="1736.94,833.135 1736.94,1141.6 1758.47,1141.6 1758.47,833.135 1736.94,833.135 "/>
<path clip-path="url(#clip073)" d="M1758.47 764.588 L1758.47 1141.6 L1780.01 1141.6 L1780.01 764.588 L1758.47 764.588 L1758.47 764.588  Z" fill="#009af9" fill-rule="evenodd" fill-opacity="1"/>
<polyline clip-path="url(#clip073)" style="stroke:#000000; stroke-linecap:round; stroke-linejoin:round; stroke-width:4; stroke-opacity:1; fill:none" points="1758.47,764.588 1758.47,1141.6 1780.01,1141.6 1780.01,764.588 1758.47,764.588 "/>
<path clip-path="url(#clip073)" d="M1780.01 764.588 L1780.01 1141.6 L1801.54 1141.6 L1801.54 764.588 L1780.01 764.588 L1780.01 764.588  Z" fill="#009af9" fill-rule="evenodd" fill-opacity="1"/>
<polyline clip-path="url(#clip073)" style="stroke:#000000; stroke-linecap:round; stroke-linejoin:round; stroke-width:4; stroke-opacity:1; fill:none" points="1780.01,764.588 1780.01,1141.6 1801.54,1141.6 1801.54,764.588 1780.01,764.588 "/>
<path clip-path="url(#clip073)" d="M1801.54 661.768 L1801.54 1141.6 L1823.07 1141.6 L1823.07 661.768 L1801.54 661.768 L1801.54 661.768  Z" fill="#009af9" fill-rule="evenodd" fill-opacity="1"/>
<polyline clip-path="url(#clip073)" style="stroke:#000000; stroke-linecap:round; stroke-linejoin:round; stroke-width:4; stroke-opacity:1; fill:none" points="1801.54,661.768 1801.54,1141.6 1823.07,1141.6 1823.07,661.768 1801.54,661.768 "/>
<path clip-path="url(#clip073)" d="M1823.07 798.862 L1823.07 1141.6 L1844.6 1141.6 L1844.6 798.862 L1823.07 798.862 L1823.07 798.862  Z" fill="#009af9" fill-rule="evenodd" fill-opacity="1"/>
<polyline clip-path="url(#clip073)" style="stroke:#000000; stroke-linecap:round; stroke-linejoin:round; stroke-width:4; stroke-opacity:1; fill:none" points="1823.07,798.862 1823.07,1141.6 1844.6,1141.6 1844.6,798.862 1823.07,798.862 "/>
<path clip-path="url(#clip073)" d="M1844.6 696.041 L1844.6 1141.6 L1866.13 1141.6 L1866.13 696.041 L1844.6 696.041 L1844.6 696.041  Z" fill="#009af9" fill-rule="evenodd" fill-opacity="1"/>
<polyline clip-path="url(#clip073)" style="stroke:#000000; stroke-linecap:round; stroke-linejoin:round; stroke-width:4; stroke-opacity:1; fill:none" points="1844.6,696.041 1844.6,1141.6 1866.13,1141.6 1866.13,696.041 1844.6,696.041 "/>
<path clip-path="url(#clip073)" d="M1866.13 593.221 L1866.13 1141.6 L1887.66 1141.6 L1887.66 593.221 L1866.13 593.221 L1866.13 593.221  Z" fill="#009af9" fill-rule="evenodd" fill-opacity="1"/>
<polyline clip-path="url(#clip073)" style="stroke:#000000; stroke-linecap:round; stroke-linejoin:round; stroke-width:4; stroke-opacity:1; fill:none" points="1866.13,593.221 1866.13,1141.6 1887.66,1141.6 1887.66,593.221 1866.13,593.221 "/>
<path clip-path="url(#clip073)" d="M1887.66 524.674 L1887.66 1141.6 L1909.2 1141.6 L1909.2 524.674 L1887.66 524.674 L1887.66 524.674  Z" fill="#009af9" fill-rule="evenodd" fill-opacity="1"/>
<polyline clip-path="url(#clip073)" style="stroke:#000000; stroke-linecap:round; stroke-linejoin:round; stroke-width:4; stroke-opacity:1; fill:none" points="1887.66,524.674 1887.66,1141.6 1909.2,1141.6 1909.2,524.674 1887.66,524.674 "/>
<path clip-path="url(#clip073)" d="M1909.2 421.853 L1909.2 1141.6 L1930.73 1141.6 L1930.73 421.853 L1909.2 421.853 L1909.2 421.853  Z" fill="#009af9" fill-rule="evenodd" fill-opacity="1"/>
<polyline clip-path="url(#clip073)" style="stroke:#000000; stroke-linecap:round; stroke-linejoin:round; stroke-width:4; stroke-opacity:1; fill:none" points="1909.2,421.853 1909.2,1141.6 1930.73,1141.6 1930.73,421.853 1909.2,421.853 "/>
<path clip-path="url(#clip073)" d="M1930.73 593.221 L1930.73 1141.6 L1952.26 1141.6 L1952.26 593.221 L1930.73 593.221 L1930.73 593.221  Z" fill="#009af9" fill-rule="evenodd" fill-opacity="1"/>
<polyline clip-path="url(#clip073)" style="stroke:#000000; stroke-linecap:round; stroke-linejoin:round; stroke-width:4; stroke-opacity:1; fill:none" points="1930.73,593.221 1930.73,1141.6 1952.26,1141.6 1952.26,593.221 1930.73,593.221 "/>
<path clip-path="url(#clip073)" d="M1952.26 79.1184 L1952.26 1141.6 L1973.79 1141.6 L1973.79 79.1184 L1952.26 79.1184 L1952.26 79.1184  Z" fill="#009af9" fill-rule="evenodd" fill-opacity="1"/>
<polyline clip-path="url(#clip073)" style="stroke:#000000; stroke-linecap:round; stroke-linejoin:round; stroke-width:4; stroke-opacity:1; fill:none" points="1952.26,79.1184 1952.26,1141.6 1973.79,1141.6 1973.79,79.1184 1952.26,79.1184 "/>
<path clip-path="url(#clip073)" d="M1973.79 593.221 L1973.79 1141.6 L1995.32 1141.6 L1995.32 593.221 L1973.79 593.221 L1973.79 593.221  Z" fill="#009af9" fill-rule="evenodd" fill-opacity="1"/>
<polyline clip-path="url(#clip073)" style="stroke:#000000; stroke-linecap:round; stroke-linejoin:round; stroke-width:4; stroke-opacity:1; fill:none" points="1973.79,593.221 1973.79,1141.6 1995.32,1141.6 1995.32,593.221 1973.79,593.221 "/>
<path clip-path="url(#clip073)" d="M1995.32 661.768 L1995.32 1141.6 L2016.85 1141.6 L2016.85 661.768 L1995.32 661.768 L1995.32 661.768  Z" fill="#009af9" fill-rule="evenodd" fill-opacity="1"/>
<polyline clip-path="url(#clip073)" style="stroke:#000000; stroke-linecap:round; stroke-linejoin:round; stroke-width:4; stroke-opacity:1; fill:none" points="1995.32,661.768 1995.32,1141.6 2016.85,1141.6 2016.85,661.768 1995.32,661.768 "/>
<circle clip-path="url(#clip073)" style="fill:#009af9; stroke:none; fill-opacity:0" cx="1252.48" cy="1073.05" r="2"/>
<circle clip-path="url(#clip073)" style="fill:#009af9; stroke:none; fill-opacity:0" cx="1274.02" cy="1107.32" r="2"/>
<circle clip-path="url(#clip073)" style="fill:#009af9; stroke:none; fill-opacity:0" cx="1295.55" cy="1107.32" r="2"/>
<circle clip-path="url(#clip073)" style="fill:#009af9; stroke:none; fill-opacity:0" cx="1317.08" cy="1141.6" r="2"/>
<circle clip-path="url(#clip073)" style="fill:#009af9; stroke:none; fill-opacity:0" cx="1338.61" cy="1073.05" r="2"/>
<circle clip-path="url(#clip073)" style="fill:#009af9; stroke:none; fill-opacity:0" cx="1360.14" cy="1073.05" r="2"/>
<circle clip-path="url(#clip073)" style="fill:#009af9; stroke:none; fill-opacity:0" cx="1381.67" cy="1107.32" r="2"/>
<circle clip-path="url(#clip073)" style="fill:#009af9; stroke:none; fill-opacity:0" cx="1403.21" cy="1107.32" r="2"/>
<circle clip-path="url(#clip073)" style="fill:#009af9; stroke:none; fill-opacity:0" cx="1424.74" cy="1004.5" r="2"/>
<circle clip-path="url(#clip073)" style="fill:#009af9; stroke:none; fill-opacity:0" cx="1446.27" cy="1107.32" r="2"/>
<circle clip-path="url(#clip073)" style="fill:#009af9; stroke:none; fill-opacity:0" cx="1467.8" cy="1038.78" r="2"/>
<circle clip-path="url(#clip073)" style="fill:#009af9; stroke:none; fill-opacity:0" cx="1489.33" cy="1038.78" r="2"/>
<circle clip-path="url(#clip073)" style="fill:#009af9; stroke:none; fill-opacity:0" cx="1510.86" cy="1038.78" r="2"/>
<circle clip-path="url(#clip073)" style="fill:#009af9; stroke:none; fill-opacity:0" cx="1532.39" cy="1004.5" r="2"/>
<circle clip-path="url(#clip073)" style="fill:#009af9; stroke:none; fill-opacity:0" cx="1553.93" cy="1073.05" r="2"/>
<circle clip-path="url(#clip073)" style="fill:#009af9; stroke:none; fill-opacity:0" cx="1575.46" cy="970.229" r="2"/>
<circle clip-path="url(#clip073)" style="fill:#009af9; stroke:none; fill-opacity:0" cx="1596.99" cy="1073.05" r="2"/>
<circle clip-path="url(#clip073)" style="fill:#009af9; stroke:none; fill-opacity:0" cx="1618.52" cy="1004.5" r="2"/>
<circle clip-path="url(#clip073)" style="fill:#009af9; stroke:none; fill-opacity:0" cx="1640.05" cy="1073.05" r="2"/>
<circle clip-path="url(#clip073)" style="fill:#009af9; stroke:none; fill-opacity:0" cx="1661.58" cy="867.409" r="2"/>
<circle clip-path="url(#clip073)" style="fill:#009af9; stroke:none; fill-opacity:0" cx="1683.11" cy="867.409" r="2"/>
<circle clip-path="url(#clip073)" style="fill:#009af9; stroke:none; fill-opacity:0" cx="1704.65" cy="935.956" r="2"/>
<circle clip-path="url(#clip073)" style="fill:#009af9; stroke:none; fill-opacity:0" cx="1726.18" cy="935.956" r="2"/>
<circle clip-path="url(#clip073)" style="fill:#009af9; stroke:none; fill-opacity:0" cx="1747.71" cy="833.135" r="2"/>
<circle clip-path="url(#clip073)" style="fill:#009af9; stroke:none; fill-opacity:0" cx="1769.24" cy="764.588" r="2"/>
<circle clip-path="url(#clip073)" style="fill:#009af9; stroke:none; fill-opacity:0" cx="1790.77" cy="764.588" r="2"/>
<circle clip-path="url(#clip073)" style="fill:#009af9; stroke:none; fill-opacity:0" cx="1812.3" cy="661.768" r="2"/>
<circle clip-path="url(#clip073)" style="fill:#009af9; stroke:none; fill-opacity:0" cx="1833.83" cy="798.862" r="2"/>
<circle clip-path="url(#clip073)" style="fill:#009af9; stroke:none; fill-opacity:0" cx="1855.37" cy="696.041" r="2"/>
<circle clip-path="url(#clip073)" style="fill:#009af9; stroke:none; fill-opacity:0" cx="1876.9" cy="593.221" r="2"/>
<circle clip-path="url(#clip073)" style="fill:#009af9; stroke:none; fill-opacity:0" cx="1898.43" cy="524.674" r="2"/>
<circle clip-path="url(#clip073)" style="fill:#009af9; stroke:none; fill-opacity:0" cx="1919.96" cy="421.853" r="2"/>
<circle clip-path="url(#clip073)" style="fill:#009af9; stroke:none; fill-opacity:0" cx="1941.49" cy="593.221" r="2"/>
<circle clip-path="url(#clip073)" style="fill:#009af9; stroke:none; fill-opacity:0" cx="1963.02" cy="79.1184" r="2"/>
<circle clip-path="url(#clip073)" style="fill:#009af9; stroke:none; fill-opacity:0" cx="1984.56" cy="593.221" r="2"/>
<circle clip-path="url(#clip073)" style="fill:#009af9; stroke:none; fill-opacity:0" cx="2006.09" cy="661.768" r="2"/>
</svg>
